<?xml version="1.0" standalone="no"?>
<!DOCTYPE svg PUBLIC "-//W3C//DTD SVG 20010904//EN"
 "http://www.w3.org/TR/2001/REC-SVG-20010904/DTD/svg10.dtd">
<svg version="1.0" xmlns="http://www.w3.org/2000/svg"
 width="667.000000pt" height="691.000000pt" viewBox="0 0 667.000000 691.000000"
 preserveAspectRatio="xMidYMid meet">

<g transform="translate(0.000000,691.000000) scale(0.100000,-0.100000)"
fill="#000000" stroke="none">
<path d="M3120 5800 c-91 -32 -266 -95 -390 -140 -124 -45 -330 -117 -459
-160 -129 -44 -238 -83 -243 -88 -4 -4 67 -37 159 -72 435 -164 512 -194 708
-275 345 -142 385 -156 408 -149 12 3 110 44 217 89 434 185 880 352 901 339
5 -3 9 -56 10 -117 0 -62 4 -134 9 -162 5 -27 10 -59 12 -70 2 -16 -5 -21 -39
-29 -49 -10 -52 -22 -29 -100 11 -36 12 -62 5 -104 -5 -31 -12 -91 -17 -133
l-8 -77 44 -6 c25 -3 78 -6 120 -6 l74 0 -7 58 c-3 31 -15 96 -25 144 -16 76
-17 91 -5 115 7 15 17 40 20 55 7 26 3 29 -39 48 -45 19 -56 36 -35 57 6 6 11
81 12 194 l2 184 34 11 c32 10 14 17 -325 128 -197 65 -485 163 -639 218 -154
55 -287 101 -295 103 -8 2 -89 -22 -180 -55z m252 -290 c22 -22 48 -42 57 -44
9 -3 120 -26 246 -51 234 -46 418 -96 431 -117 13 -20 -200 -3 -326 27 -146
34 -350 84 -372 91 -11 3 -19 -2 -23 -16 -16 -49 -115 -66 -160 -27 -55 47
-40 133 28 162 52 23 75 18 119 -25z"/>
<path d="M2136 5048 c-156 -159 -239 -273 -340 -468 -124 -242 -173 -414 -200
-695 -8 -77 8 -317 29 -442 26 -154 109 -387 190 -536 44 -81 72 -122 76 -114
4 7 15 64 24 127 9 63 22 160 30 215 8 55 35 264 60 465 47 376 70 538 76 544
16 15 111 36 163 36 l64 0 7 48 c3 26 9 58 12 71 l6 23 186 -5 c152 -4 206
-10 296 -31 141 -33 272 -97 357 -176 l63 -57 3 -564 c1 -310 -1 -601 -5 -646
l-8 -81 -72 61 c-138 117 -306 197 -493 233 -101 19 -335 18 -419 -1 -35 -9
-66 -14 -68 -11 -5 4 20 220 77 661 35 273 46 386 38 385 -2 -1 -28 -7 -58
-14 l-55 -12 -7 -70 c-21 -185 -51 -441 -78 -649 -43 -326 -67 -520 -66 -521
1 -1 102 -9 226 -17 323 -24 458 -53 618 -135 51 -26 126 -73 165 -104 86 -69
132 -92 214 -108 93 -18 168 8 303 105 58 41 134 89 169 106 192 92 453 144
750 152 96 2 101 3 101 23 0 38 -20 222 -45 424 -13 107 -31 258 -39 335 -9
77 -25 213 -38 301 l-22 162 -53 15 -53 14 0 -34 c0 -39 62 -601 86 -778 29
-222 33 -250 29 -254 -2 -2 -39 6 -83 18 -91 24 -253 34 -359 20 -75 -10 -199
-43 -297 -79 -69 -26 -214 -121 -290 -191 -30 -27 -56 -46 -58 -42 -2 4 -1
301 2 658 l5 651 25 31 c57 70 219 153 382 194 99 25 449 40 486 20 13 -7 24
-28 31 -63 16 -71 25 -80 77 -72 56 8 149 -19 168 -49 16 -26 25 -87 66 -457
60 -544 110 -880 131 -880 5 0 9 4 9 10 0 5 15 33 34 62 95 150 166 333 211
548 32 152 45 457 26 604 -18 130 -63 295 -116 421 -51 123 -143 291 -181 333
l-25 27 5 -65 c3 -36 13 -101 23 -144 l17 -79 -32 -28 c-46 -41 -130 -63 -217
-56 -79 6 -173 38 -200 67 -20 22 -22 104 -5 205 5 33 10 117 10 187 l0 127
30 23 c34 25 36 36 16 81 -8 18 -17 40 -20 51 -7 21 -25 18 -120 -17 l-58 -22
7 -126 c9 -160 0 -194 -62 -249 -61 -53 -433 -238 -573 -283 -181 -60 -203
-62 -322 -33 -256 61 -615 229 -708 330 -24 27 -25 34 -30 193 l-5 166 -70 28
c-38 16 -76 29 -84 29 -8 0 -73 -60 -145 -132z m561 -2122 c197 -55 313 -118
438 -240 47 -45 85 -88 85 -95 0 -11 -87 43 -162 101 -66 51 -214 117 -340
152 -129 35 -295 56 -452 56 -86 0 -105 9 -65 31 40 21 114 28 259 24 117 -3
163 -8 237 -29z m1631 9 c29 -9 50 -20 48 -24 -3 -4 -67 -11 -143 -15 -76 -4
-174 -12 -218 -17 -174 -21 -380 -106 -550 -227 -54 -39 -101 -69 -103 -67 -9
9 23 48 96 116 126 119 309 207 505 245 90 17 291 11 365 -11z"/>
<path d="M3940 5057 c-168 -76 -535 -227 -617 -252 -39 -12 -47 -11 -135 22
-136 50 -451 179 -541 220 -42 20 -79 34 -81 32 -2 -2 -6 -57 -9 -122 l-5
-118 41 -30 c65 -47 332 -174 447 -213 169 -57 230 -67 303 -50 144 34 566
218 650 284 27 21 27 23 27 135 0 63 -3 116 -7 118 -5 2 -37 -9 -73 -26z"/>
<path d="M3985 4069 c-177 -11 -365 -68 -465 -140 -35 -25 -39 -33 -34 -57 4
-15 8 -29 10 -30 1 -2 40 16 86 41 151 82 346 126 506 114 l72 -5 0 39 c0 27
-4 39 -14 39 -8 0 -20 2 -28 3 -7 2 -67 0 -133 -4z"/>
<path d="M2446 4048 c-12 -45 -10 -46 102 -52 206 -13 339 -46 454 -116 37
-22 72 -40 77 -40 6 0 11 18 11 39 l0 39 -92 45 c-139 68 -306 107 -459 107
-81 0 -87 -1 -93 -22z"/>
<path d="M2428 3875 c-5 -5 -8 -21 -8 -37 0 -28 1 -28 58 -28 163 0 344 -43
496 -120 55 -27 102 -48 103 -46 2 2 6 19 9 37 l6 34 -104 53 c-135 69 -262
101 -428 109 -69 3 -128 2 -132 -2z"/>
<path d="M3906 3869 c-109 -16 -251 -59 -334 -101 -84 -43 -84 -43 -78 -77 3
-18 7 -35 9 -37 2 -2 36 12 76 32 156 76 319 115 498 118 l103 1 0 38 0 37
-107 -1 c-60 -1 -134 -5 -167 -10z"/>
<path d="M2413 3679 c-7 -7 -13 -25 -13 -39 l0 -27 128 -6 c187 -9 363 -58
485 -133 32 -20 60 -34 63 -32 2 3 7 19 10 36 6 29 3 33 -56 71 -73 48 -140
74 -270 107 -116 30 -328 44 -347 23z"/>
<path d="M3951 3679 c-157 -17 -339 -76 -414 -133 -31 -24 -37 -34 -37 -67 0
-22 2 -39 5 -39 2 0 28 15 57 33 134 86 304 129 506 131 l144 1 -6 34 c-3 18
-7 35 -8 37 -10 9 -173 11 -247 3z"/>
<path d="M2389 3465 c-1 -14 -2 -29 -3 -35 -1 -5 55 -11 134 -14 180 -6 305
-37 448 -111 59 -30 108 -53 109 -51 2 1 5 16 9 33 6 28 2 32 -65 72 -149 90
-308 131 -510 131 l-121 0 -1 -25z"/>
<path d="M3875 3475 c-120 -26 -212 -58 -297 -103 -75 -40 -88 -50 -88 -72 0
-50 13 -54 66 -21 131 81 310 128 521 138 139 6 142 7 148 30 3 13 3 28 0 33
-9 15 -280 11 -350 -5z"/>
<path d="M2398 3303 c-37 -4 -38 -6 -38 -43 l0 -39 139 0 c88 0 167 -6 217
-16 100 -21 245 -75 289 -109 39 -30 60 -33 69 -10 17 44 -5 67 -108 117 -169
83 -379 119 -568 100z"/>
<path d="M3965 3304 c-167 -27 -236 -47 -347 -102 -104 -50 -118 -60 -118 -82
0 -57 12 -58 112 -8 180 89 362 127 546 113 l92 -7 0 31 c0 20 -7 34 -20 41
-21 11 -216 21 -265 14z"/>
<path d="M4376 2719 c-140 -9 -345 -48 -471 -90 -110 -37 -194 -82 -305 -164
-47 -34 -103 -72 -125 -83 -59 -29 -149 -45 -214 -37 -112 13 -172 41 -296
138 -107 85 -319 170 -501 201 -186 33 -493 42 -509 17 -6 -11 137 -173 226
-255 122 -114 322 -235 509 -309 78 -31 275 -81 385 -98 138 -21 372 -14 516
15 421 86 767 287 1012 588 21 26 36 52 33 57 -7 10 -35 16 -106 23 -19 2 -88
1 -154 -3z"/>
<path d="M4876 2510 c-34 -11 -101 -73 -122 -112 -8 -15 -14 -49 -14 -75 1
-138 125 -234 251 -192 74 25 139 115 139 191 0 72 -41 142 -101 173 -35 19
-117 26 -153 15z m147 -57 c57 -29 86 -149 49 -205 -61 -93 -169 -114 -239
-46 -63 61 -68 164 -11 227 46 51 129 62 201 24z"/>
<path d="M4860 2313 c3 -71 9 -108 17 -110 8 -3 15 11 19 37 9 56 28 60 68 16
36 -38 63 -49 51 -18 -16 39 -16 53 0 103 17 50 17 53 -1 66 -11 8 -45 13 -88
13 l-71 0 5 -107z m118 50 c-3 -19 -65 -36 -74 -21 -13 20 6 38 41 38 29 0 36
-4 33 -17z"/>
<path d="M1556 1901 c-3 -5 -4 -154 -1 -332 3 -178 5 -358 5 -399 l0 -75 310
0 310 0 0 88 0 87 -224 0 -224 0 -4 68 c-2 37 -2 70 0 75 2 4 82 7 178 7 l174
0 0 75 0 75 -62 0 c-35 0 -114 3 -175 7 l-113 6 0 79 0 78 220 0 221 0 -3 80
-3 80 -302 5 c-176 3 -304 2 -307 -4z"/>
<path d="M2301 1881 c13 -16 51 -62 85 -103 33 -40 98 -124 143 -185 l82 -113
-24 -22 c-22 -21 -73 -80 -258 -297 l-56 -66 111 -3 111 -3 98 130 c54 72 102
131 106 131 9 0 147 -186 172 -230 14 -24 18 -25 117 -25 70 0 102 4 102 11 0
15 -94 146 -174 244 -34 41 -72 90 -85 108 l-23 32 56 83 c60 88 100 139 184
237 28 33 52 65 52 71 0 5 -31 9 -69 9 -37 0 -89 3 -113 6 l-46 6 -36 -68
c-20 -38 -57 -97 -83 -131 l-46 -62 -60 77 c-33 42 -74 93 -91 113 -17 20 -39
46 -48 57 -16 20 -27 22 -124 22 l-107 0 24 -29z"/>
<path d="M4853 1888 c-45 -51 -211 -312 -233 -366 -3 -8 -10 -12 -15 -10 -10
3 -118 158 -217 311 l-51 77 -83 0 -83 0 -3 -392 c-2 -216 -2 -395 -1 -398 0
-3 37 -4 82 -2 l81 4 1 216 c0 119 4 226 8 237 6 16 21 -4 82 -108 41 -71 100
-169 133 -219 l58 -90 40 79 c45 85 194 341 212 360 10 11 12 -178 3 -420 l-2
-67 46 0 c25 0 67 3 93 6 l46 7 0 398 0 399 -88 0 c-79 0 -91 -2 -109 -22z"/>
<path d="M3474 1870 c-11 -50 -27 -96 -47 -135 -11 -22 -37 -87 -58 -146 -45
-128 -130 -330 -175 -421 -19 -38 -32 -68 -29 -68 3 -1 51 -1 107 -1 l101 -1
18 67 c9 37 21 71 26 76 4 4 83 5 175 2 l168 -6 27 -68 28 -69 108 0 c59 0
107 3 107 8 0 4 -12 24 -26 45 -34 51 -113 209 -164 332 -23 55 -74 171 -113
258 l-71 158 -88 -3 c-86 -2 -89 -3 -94 -28z m176 -367 c28 -64 50 -118 50
-118 0 -3 -230 0 -230 3 0 2 14 35 31 75 17 40 37 95 45 122 25 83 23 81 40
57 8 -12 37 -74 64 -139z"/>
<path d="M1090 1644 c-6 -14 -10 -34 -10 -44 0 -25 -29 -40 -79 -40 -36 0 -41
-3 -41 -23 0 -27 17 -47 41 -47 33 0 39 -23 18 -69 -35 -79 -20 -91 49 -40
l42 31 43 -36 c41 -33 77 -47 77 -28 0 4 -7 29 -15 56 -20 66 -20 68 15 88 21
12 30 25 30 43 0 23 -4 25 -44 25 -47 0 -59 9 -70 55 -14 57 -40 71 -56 29z"/>
<path d="M5519 1613 c-15 -48 -15 -48 -62 -51 -26 -2 -47 -4 -47 -6 0 -15 24
-66 31 -66 23 0 28 -39 12 -84 -9 -25 -14 -48 -10 -52 8 -9 42 7 79 38 l28 22
45 -33 c26 -18 49 -31 51 -28 3 3 0 31 -7 63 -11 49 -11 58 1 62 23 8 62 52
57 65 -2 7 -26 13 -55 15 -51 3 -51 3 -57 40 -10 56 -13 62 -33 62 -13 0 -23
-13 -33 -47z"/>
<path d="M3148 919 c-112 -26 -247 -133 -298 -234 -22 -45 -25 -62 -25 -165 0
-103 3 -121 26 -170 96 -205 355 -299 553 -201 83 40 182 135 217 206 21 44
24 64 24 165 0 102 -3 121 -25 165 -30 63 -131 164 -190 193 -97 46 -199 61
-282 41z m189 -188 c80 -41 123 -112 123 -206 0 -99 -44 -168 -135 -211 -87
-41 -167 -27 -245 43 -59 53 -86 120 -77 195 19 158 194 252 334 179z"/>
<path d="M1585 914 c-106 -26 -182 -77 -220 -146 -55 -101 -16 -232 84 -283
25 -12 102 -38 170 -56 129 -34 165 -54 159 -92 -5 -34 -63 -67 -118 -67 -55
0 -160 30 -208 60 -18 11 -34 20 -35 20 -2 0 -28 -30 -57 -66 -61 -75 -64 -66
44 -119 219 -108 431 -75 521 80 53 92 40 191 -33 255 -38 34 -69 48 -188 86
-79 25 -154 54 -166 64 l-23 18 21 29 c30 41 81 65 126 58 43 -6 144 -49 168
-70 15 -13 21 -8 64 56 55 83 58 76 -62 135 -61 30 -86 37 -150 39 -42 2 -86
2 -97 -1z"/>
<path d="M2060 829 l0 -89 119 0 119 0 6 -32 c3 -18 3 -129 0 -248 -4 -118 -4
-245 0 -282 l7 -67 91 0 90 1 -7 314 -8 314 127 0 126 0 0 85 0 85 -57 1 c-32
1 -183 3 -335 4 l-278 2 0 -88z"/>
<path d="M3844 643 c3 -147 6 -325 6 -395 l0 -128 53 0 c28 0 68 3 87 6 l35 6
-3 119 -4 119 55 0 c31 0 62 3 70 6 10 3 35 -25 80 -93 36 -54 73 -114 82
-134 l17 -36 102 5 c55 2 103 6 105 8 2 2 -28 47 -66 101 -102 143 -120 176
-102 181 7 3 37 28 65 56 60 59 79 112 71 192 -10 99 -67 172 -172 221 -59 27
-64 28 -274 31 l-213 4 6 -269z m383 96 c69 -26 100 -93 67 -147 -25 -44 -53
-52 -169 -52 l-105 0 0 105 0 105 89 0 c49 0 102 -5 118 -11z"/>
<path d="M4700 509 l0 -402 46 7 c26 3 161 6 300 6 l254 0 0 85 0 85 -205 0
-205 0 0 70 0 70 164 0 c91 0 166 3 168 8 2 4 2 40 0 79 l-4 73 -166 2 -167 3
-3 73 -3 72 212 0 211 0 -6 23 c-3 12 -6 50 -6 85 l0 62 -295 0 -295 0 0 -401z"/>
<path d="M877 664 c-4 -4 -7 -22 -7 -40 0 -58 -6 -64 -71 -64 -56 0 -59 -1
-59 -25 0 -18 11 -32 41 -50 28 -18 39 -31 35 -43 -16 -54 -24 -108 -16 -116
5 -5 30 7 58 28 27 20 54 36 59 36 5 0 24 -16 43 -35 57 -59 86 -39 52 38 -11
24 -17 49 -13 53 3 5 25 24 49 43 44 34 54 60 25 62 -10 0 -38 1 -62 2 -45 2
-45 2 -66 57 -15 38 -27 56 -41 58 -11 2 -23 0 -27 -4z"/>
<path d="M5689 628 c-18 -61 -25 -68 -80 -68 -36 0 -49 -4 -49 -14 0 -28 13
-47 42 -62 l30 -15 -7 -70 c-6 -61 -5 -69 10 -69 9 0 31 16 48 35 17 19 35 35
40 35 6 0 33 -21 61 -47 51 -48 51 -48 54 -22 2 15 -4 44 -12 64 -24 56 -20
70 25 99 58 39 50 61 -21 61 l-54 0 -21 55 c-27 71 -49 77 -66 18z"/>
</g>
</svg>
