<?xml version="1.0" encoding="UTF-8"?>
<svg version="1.1" xmlns="http://www.w3.org/2000/svg" width="1080" height="470">
<path d="M0 0 C356.4 0 712.8 0 1080 0 C1080 155.1 1080 310.2 1080 470 C723.6 470 367.2 470 0 470 C0 314.9 0 159.8 0 0 Z " fill="#323031" transform="translate(0,0)"/>
<path d="M0 0 C0 0.66 0 1.32 0 2 C0.99 2 1.98 2 3 2 C2.27874675 6.47524609 0.79076599 10.59283407 -0.8125 14.8125 C-1.08094727 15.52591553 -1.34939453 16.23933105 -1.62597656 16.97436523 C-3.01002876 20.59817854 -4.45357387 24.118785 -6.25 27.5625 C-8.03875414 31.0761242 -9.04908715 34.19634859 -10 38 C-12.81768387 39.1554531 -13.88408148 39.04483487 -16.77734375 37.92578125 C-18.34162109 37.12720703 -18.34162109 37.12720703 -19.9375 36.3125 C-26.47133416 33.14836233 -33.00286156 30.898114 -40 29 C-41.24394531 28.6390625 -42.48789062 28.278125 -43.76953125 27.90625 C-48.4723565 26.74832136 -53.05191697 26.69678737 -57.875 26.75 C-58.75687988 26.75676758 -59.63875977 26.76353516 -60.54736328 26.77050781 C-69.32494479 26.91011795 -77.01513823 27.23748904 -84 33 C-86.04836083 36.07254125 -86.29456493 36.87168285 -86.3125 40.375 C-86.32925781 41.12523437 -86.34601563 41.87546875 -86.36328125 42.6484375 C-85.88481538 45.74560368 -84.90457219 47.51256304 -83 50 C-74.34374444 55.15082975 -63.3549534 56.63319008 -53.640625 58.7578125 C-32.4911358 63.3847144 -9.61232404 68.60496751 4 87 C4 87.66 4 88.32 4 89 C4.66 89 5.32 89 6 89 C6 90.32 6 91.64 6 93 C6.66 93 7.32 93 8 93 C9.78842399 99.1317394 10.3079192 104.62888853 10.25 111 C10.25773438 111.85078125 10.26546875 112.7015625 10.2734375 113.578125 C10.2499315 121.24108104 8.53300002 127.76285708 6 135 C5.34 135 4.68 135 4 135 C3.71125 135.7425 3.4225 136.485 3.125 137.25 C2.568125 138.61125 2.568125 138.61125 2 140 C1.75121094 140.62648438 1.50242187 141.25296875 1.24609375 141.8984375 C-4.92253826 152.30196108 -20.79735947 160.43897965 -32 164 C-37.60748535 165.32509274 -43.29667983 166.2042199 -49 167 C-50.29035156 167.185625 -51.58070313 167.37125 -52.91015625 167.5625 C-81.51157764 171.0128302 -111.88254477 164.88671356 -137 151 C-137.33 150.67 -137.66 150.34 -138 150 C-137.75490102 142.96075733 -134.54989209 137.13827439 -131.5625 130.875 C-130.56290356 128.74781783 -129.56417375 126.62022815 -128.56640625 124.4921875 C-128.12240479 123.55745605 -127.67840332 122.62272461 -127.22094727 121.65966797 C-126.06162216 119.13423551 -125.00790625 116.58907932 -124 114 C-119.60857398 114.62142821 -116.03934082 116.3412234 -112.125 118.3125 C-105.66220545 121.45988657 -99.31878312 123.5011389 -92.33984375 125.17578125 C-89 126 -89 126 -86.23413086 127.03271484 C-80.83788861 128.64665851 -75.32774313 128.33319358 -69.7421875 128.31567383 C-67.63749126 128.31251873 -65.53420999 128.33599318 -63.4296875 128.36132812 C-54.86794888 128.40131934 -46.56362389 128.30107894 -40 122 C-38.74721589 118.24164766 -38.11017979 114.87793269 -39 111 C-42.97970748 106.0283783 -48.31113544 103.67687034 -54.25 101.875 C-55.42236206 101.50072876 -55.42236206 101.50072876 -56.6184082 101.11889648 C-62.84528328 99.19686812 -69.13074939 97.85516911 -75.52026367 96.60668945 C-82.144148 95.27380584 -88.59302843 93.50652326 -95.0625 91.5625 C-96.00182373 91.28607666 -96.94114746 91.00965332 -97.90893555 90.72485352 C-106.67604632 88.02913617 -114.77033471 84.94162704 -121 78 C-121.79535156 77.39414062 -122.59070313 76.78828125 -123.41015625 76.1640625 C-131.11724894 69.7240484 -135.27945323 59.91800845 -136.17578125 50.06835938 C-137.08390668 36.22593312 -134.76354849 24.11319554 -126 13 C-125.48695313 12.31292969 -124.97390625 11.62585938 -124.4453125 10.91796875 C-119.85050548 5.16896379 -114.35354367 1.61037022 -108 -2 C-107.21882813 -2.4640625 -106.43765625 -2.928125 -105.6328125 -3.40625 C-75.41455033 -20.09242844 -29.7562411 -13.99107813 0 0 Z " fill="#FCFCFC" transform="translate(336,209)"/>
<path d="M0 0 C3.36921414 2.58906532 6.03492731 5.54704502 8.66015625 8.8671875 C10.50076698 11.37122419 10.50076698 11.37122419 13.53515625 13.1796875 C14.98112901 15.49324391 16.27739582 17.76602753 17.53515625 20.1796875 C17.963125 20.99566406 18.39109375 21.81164062 18.83203125 22.65234375 C26.46805535 37.54259075 28.60946429 56.60959438 23.9987793 72.92578125 C18.98691945 88.35035779 11.813938 99.65315177 -1.46484375 109.1796875 C-2.94984375 109.6746875 -2.94984375 109.6746875 -4.46484375 110.1796875 C-4.46484375 110.8396875 -4.46484375 111.4996875 -4.46484375 112.1796875 C-5.51671875 112.6128125 -6.56859375 113.0459375 -7.65234375 113.4921875 C-9.91015576 114.44758899 -11.77883903 115.38626335 -13.83984375 116.7421875 C-16.96209911 118.45199401 -19.86593804 119.0249409 -23.3359375 119.7109375 C-25.58075753 120.13995001 -25.58075753 120.13995001 -28.02734375 121.2421875 C-34.97580444 123.91467238 -43.00955416 123.36261179 -50.33984375 123.3671875 C-51.36464844 123.37943359 -52.38945313 123.39167969 -53.4453125 123.40429688 C-63.17902775 123.42284906 -71.88249072 121.68405704 -81.02734375 118.4296875 C-81.76041748 118.17018311 -82.49349121 117.91067871 -83.2487793 117.64331055 C-88.90210517 115.5589877 -93.72741263 112.92971612 -98.46484375 109.1796875 C-99.20089844 108.66792969 -99.93695313 108.15617187 -100.6953125 107.62890625 C-101.57123047 106.91154297 -101.57123047 106.91154297 -102.46484375 106.1796875 C-102.46484375 105.5196875 -102.46484375 104.8596875 -102.46484375 104.1796875 C-103.94984375 103.6846875 -103.94984375 103.6846875 -105.46484375 103.1796875 C-114.16593394 95.12471787 -120.15898001 84.45949395 -123.46484375 73.1796875 C-123.69042969 72.43847656 -123.91601562 71.69726562 -124.1484375 70.93359375 C-128.25280412 54.60104521 -125.84508791 36.09419148 -118.15234375 21.1796875 C-113.9125573 14.39870412 -108.99259694 7.8715101 -102.46484375 3.1796875 C-101.80484375 3.1796875 -101.14484375 3.1796875 -100.46484375 3.1796875 C-100.23796875 2.5815625 -100.01109375 1.9834375 -99.77734375 1.3671875 C-98.09774329 -1.43214661 -96.3737925 -2.40131311 -93.46484375 -3.8203125 C-92.47484375 -3.8203125 -91.48484375 -3.8203125 -90.46484375 -3.8203125 C-90.46484375 -4.4803125 -90.46484375 -5.1403125 -90.46484375 -5.8203125 C-60.85391667 -19.50415001 -27.52621637 -18.51213672 0 0 Z " fill="#FCFCFC" transform="translate(590.46484375,251.8203125)"/>
<path d="M0 0 C1.34132485 1.13646797 2.67590079 2.28100828 4 3.4375 C4.86625 4.076875 5.7325 4.71625 6.625 5.375 C11.85085988 9.91324674 16.44032823 14.50562545 18 21.4375 C18.66 21.4375 19.32 21.4375 20 21.4375 C26.93792821 36.92067703 29.81388138 51.55421171 27 68.4375 C-5.01 68.4375 -37.02 68.4375 -70 68.4375 C-62.65133734 81.94372104 -62.65133734 81.94372104 -50 88.4375 C-37.91902571 91.42314177 -26.61804723 88.81729556 -15 85.4375 C-15 84.7775 -15 84.1175 -15 83.4375 C-13.46875 82.1484375 -13.46875 82.1484375 -11.5 80.8125 C-10.8503125 80.36648438 -10.200625 79.92046875 -9.53125 79.4609375 C-8.77328125 78.95433594 -8.77328125 78.95433594 -8 78.4375 C-4.15869402 79.94658449 -2.51196888 82.2404487 0 85.4375 C1.65002828 86.79136936 3.3174387 88.12428142 5 89.4375 C9.60204129 93.7907823 14.06518161 98.46771697 18 103.4375 C18 105.4375 18 105.4375 15.6875 108 C13 110.4375 13 110.4375 10 111.4375 C9.67 112.0975 9.34 112.7575 9 113.4375 C6.56099556 114.83503174 4.14001858 116.12859643 1.625 117.375 C0.90054688 117.734729 0.17609375 118.09445801 -0.5703125 118.46508789 C-20.6665176 128.19027935 -48.25364702 129.13154423 -69.25390625 121.85546875 C-70.50398962 121.38648903 -71.7527708 120.91401836 -73 120.4375 C-74.12277344 120.04175781 -75.24554687 119.64601563 -76.40234375 119.23828125 C-86.03999108 115.58010742 -93.92161481 110.3608345 -100.4296875 102.33203125 C-101.99356176 100.36549525 -101.99356176 100.36549525 -104.00390625 98.5546875 C-109.2816256 92.95679339 -112.16833553 84.76207603 -114.359375 77.47265625 C-114.98069667 75.36306274 -114.98069667 75.36306274 -116.0234375 73.14477539 C-117.0609491 70.26853385 -117.2580687 68.1316648 -117.265625 65.0859375 C-117.26820313 64.06886719 -117.27078125 63.05179687 -117.2734375 62.00390625 C-117.26183594 60.42416016 -117.26183594 60.42416016 -117.25 58.8125 C-117.25773438 57.78253906 -117.26546875 56.75257813 -117.2734375 55.69140625 C-117.24829532 45.69739056 -115.82292093 36.67622559 -112 27.4375 C-111.608125 26.4475 -111.21625 25.4575 -110.8125 24.4375 C-110.544375 23.7775 -110.27625 23.1175 -110 22.4375 C-109.34 22.4375 -108.68 22.4375 -108 22.4375 C-107.59007812 21.32761719 -107.59007812 21.32761719 -107.171875 20.1953125 C-101.94716455 7.89982725 -88.59352456 -1.75333508 -76.515625 -6.64453125 C-75.27039063 -7.09892578 -75.27039063 -7.09892578 -74 -7.5625 C-73.23171875 -7.85511719 -72.4634375 -8.14773437 -71.671875 -8.44921875 C-69.46475578 -9.24023176 -67.25527425 -9.92270589 -65 -10.5625 C-64.31421875 -10.76875 -63.6284375 -10.975 -62.921875 -11.1875 C-43.31446011 -16.12363242 -16.21504456 -12.48131719 0 0 Z " fill="#FCFCFC" transform="translate(855,249.5625)"/>
<path d="M0 0 C15.51 0 31.02 0 47 0 C47 11.55 47 23.1 47 35 C57.23 35 67.46 35 78 35 C78 46.55 78 58.1 78 70 C67.77 70 57.54 70 47 70 C47.05114418 76.83286294 47.11421873 83.66348596 47.20751953 90.49560547 C47.23566532 92.81747139 47.25691149 95.13943199 47.27099609 97.46142578 C47.29251355 100.80810799 47.33921124 104.15365949 47.390625 107.5 C47.39185364 108.5305249 47.39308228 109.5610498 47.39434814 110.62280273 C47.5185354 116.79740832 48.23044245 121.93352201 52 127 C56.86039893 130.24026596 62.31007607 129.48990735 68 129 C71.48706685 127.59501588 71.48706685 127.59501588 74 126 C75.485 126.495 75.485 126.495 77 127 C77.95703125 129.6328125 77.95703125 129.6328125 78.8125 133.125 C80.45537471 139.35769587 82.54526268 145.18489662 85.06958008 151.11181641 C86.25374135 153.9313932 87 155.90383031 87 159 C85.33762104 159.80063104 83.66981875 160.59000368 82 161.375 C81.071875 161.81585938 80.14375 162.25671875 79.1875 162.7109375 C70.9822026 166.0292563 63.5893195 166.33683949 54.8125 166.3125 C53.09836914 166.33666992 53.09836914 166.33666992 51.34960938 166.36132812 C43.2024063 166.36593367 35.85126307 165.14834748 28 163 C28 162.34 28 161.68 28 161 C27.195625 160.979375 26.39125 160.95875 25.5625 160.9375 C17.39610655 158.78844909 11.98375181 152.47249698 7.5 145.6015625 C0.95303948 134.24667785 -0.31860492 122.45817454 -0.1953125 109.55078125 C-0.1924826 108.41215134 -0.18965271 107.27352142 -0.18673706 106.10038757 C-0.17564393 102.50431293 -0.15055997 98.90849791 -0.125 95.3125 C-0.11495615 92.8574255 -0.10583277 90.40234705 -0.09765625 87.94726562 C-0.07574027 81.96474546 -0.04128652 75.98241657 0 70 C-6.27 70 -12.54 70 -19 70 C-19 58.45 -19 46.9 -19 35 C-12.73 35 -6.46 35 0 35 C0 23.45 0 11.9 0 0 Z " fill="#FDFCFD" transform="translate(372,209)"/>
<path d="M0 0 C0 13.86 0 27.72 0 42 C-9.9 42.495 -9.9 42.495 -20 43 C-22.97 43.99 -25.94 44.98 -29 46 C-29.99 46.33 -30.98 46.66 -32 47 C-32 47.66 -32 48.32 -32 49 C-32.9075 49.598125 -33.815 50.19625 -34.75 50.8125 C-39.7064678 54.84628699 -40.70734894 60.99019709 -42 67 C-42.54726983 72.46037904 -42.6062538 77.88312181 -42.609375 83.36328125 C-42.62439627 84.89171566 -42.64113151 86.42013408 -42.65948486 87.9485321 C-42.70272893 91.92516931 -42.72306063 95.90158782 -42.73822021 99.87841797 C-42.76143137 104.67458788 -42.81380972 109.47052171 -42.86116028 114.26650238 C-42.92948954 121.51106229 -42.96132879 128.75494831 -43 136 C-58.51 136 -74.02 136 -90 136 C-90 91.78 -90 47.56 -90 2 C-75.15 2 -60.3 2 -45 2 C-44.505 8.93 -44.505 8.93 -44 16 C-42.68 15.34 -41.36 14.68 -40 14 C-40 13.34 -40 12.68 -40 12 C-38.68 11.67 -37.36 11.34 -36 11 C-36 10.34 -36 9.68 -36 9 C-23.96581972 2.52202636 -13.68424887 0 0 0 Z " fill="#FDFCFD" transform="translate(728,237)"/>
<path d="M0 0 C7.92 0 15.84 0 24 0 C24 2.31 24 4.62 24 7 C27.27773504 6.24849977 27.27773504 6.24849977 29 3 C32.625 2.3125 32.625 2.3125 36 2 C36 1.34 36 0.68 36 0 C59.48873819 -0.25938484 59.48873819 -0.25938484 64 3.5 C64.99 4.7375 64.99 4.7375 66 6 C67.01515258 7.20488924 67.01515258 7.20488924 69.0625 7.375 C73.43033284 6.81740432 76.4308621 4.46404918 80 2 C84.73664981 -1.15776654 89.74206807 -0.36870217 95.3125 -0.375 C97.00536133 -0.41173828 97.00536133 -0.41173828 98.73242188 -0.44921875 C105.03240143 -0.47146706 109.31764841 -0.45859319 114 4 C114 4.66 114 5.32 114 6 C114.99 6.33 115.98 6.66 117 7 C118.1875 9.5625 118.1875 9.5625 119 12 C119.66 12 120.32 12 121 12 C122.87165968 19.12130114 123.27997674 25.65547104 123.23046875 33 C123.23001053 34.11689209 123.22955231 35.23378418 123.2290802 36.38452148 C123.22607574 38.72754998 123.2182441 41.07057679 123.20581055 43.41357422 C123.18741488 47.01667257 123.18530206 50.61951557 123.18554688 54.22265625 C123.18063629 56.50260641 123.17480999 58.78255482 123.16796875 61.0625 C123.16685593 62.14466797 123.1657431 63.22683594 123.16459656 64.34179688 C123.15821671 65.33373047 123.15183685 66.32566406 123.14526367 67.34765625 C123.14145187 68.22429932 123.13764008 69.10094238 123.13371277 70.00415039 C123 72 123 72 122 73 C120.23140807 73.09946453 118.45888549 73.13080217 116.6875 73.1328125 C115.61242187 73.13410156 114.53734375 73.13539063 113.4296875 73.13671875 C112.29789063 73.13285156 111.16609375 73.12898438 110 73.125 C108.86820313 73.12886719 107.73640625 73.13273437 106.5703125 73.13671875 C105.49523437 73.13542969 104.42015625 73.13414062 103.3125 73.1328125 C102.31863281 73.13168457 101.32476563 73.13055664 100.30078125 73.12939453 C98 73 98 73 97 72 C96.88334523 70.66587273 96.83283631 69.32584855 96.81054688 67.98681641 C96.79382935 67.13568268 96.77711182 66.28454895 96.7598877 65.40762329 C96.74631226 64.48162323 96.73273682 63.55562317 96.71875 62.6015625 C96.70034058 61.65566254 96.68193115 60.70976257 96.66296387 59.73519897 C96.60401463 56.69853127 96.55130064 53.66180598 96.5 50.625 C96.43241133 46.63789985 96.35868812 42.65098209 96.28125 38.6640625 C96.26767456 37.7421109 96.25409912 36.8201593 96.2401123 35.87026978 C96.22339478 35.01283173 96.20667725 34.15539368 96.18945312 33.27197266 C96.17692505 32.51776031 96.16439697 31.76354797 96.15148926 30.98648071 C96.06492447 28.78948179 96.06492447 28.78948179 95 26 C91.35199441 23.57331794 88.39741387 23.75212037 84.19140625 24.3203125 C80.38314735 25.50148371 79.11729685 27.69172368 77 31 C75.6946187 34.9161439 75.82492853 38.67024956 75.7890625 42.75390625 C75.76100995 44.51237936 75.73234561 46.27084279 75.703125 48.02929688 C75.66174766 50.80330294 75.62486172 53.57712521 75.59863281 56.35131836 C75.57113312 59.02755973 75.52528244 61.70297862 75.4765625 64.37890625 C75.47330963 65.21224991 75.47005676 66.04559357 75.46670532 66.90419006 C75.41650391 69.24047852 75.41650391 69.24047852 75 73 C71.60445813 75.26369458 70.6548443 75.20442547 66.7109375 75.01171875 C65.68742188 74.96466797 64.66390625 74.91761719 63.609375 74.86914062 C62.54203125 74.80919922 61.4746875 74.74925781 60.375 74.6875 C59.29992187 74.63916016 58.22484375 74.59082031 57.1171875 74.54101562 C49.14332953 74.14332953 49.14332953 74.14332953 48 73 C47.89855115 71.57859607 47.86432973 70.15230119 47.8581543 68.72729492 C47.85111984 67.81932663 47.84408539 66.91135834 47.83683777 65.97587585 C47.83267349 64.98739151 47.82850922 63.99890717 47.82421875 62.98046875 C47.80101892 60.90558883 47.77690152 58.83071901 47.75195312 56.75585938 C47.71682273 53.47055332 47.68749231 50.18561756 47.67407227 46.90014648 C47.65861704 43.73895931 47.61841756 40.57886748 47.57421875 37.41796875 C47.57612717 36.4355571 47.57803558 35.45314545 47.58000183 34.44096375 C47.54726251 29.04966912 47.54726251 29.04966912 45.11645508 24.37988281 C42.55006171 22.70664999 41.04801699 22.49280449 38 22.5625 C37.154375 22.56378906 36.30875 22.56507812 35.4375 22.56640625 C32.52438073 23.08460535 31.13550595 23.9741294 29 26 C28.67 26.99 28.34 27.98 28 29 C27.01 29 26.02 29 25 29 C25.00785522 30.94604126 25.00785522 30.94604126 25.01586914 32.93139648 C25.03391469 37.72647415 25.04543037 42.5215488 25.05493164 47.31665039 C25.05997288 49.39543156 25.06680574 51.47420916 25.07543945 53.55297852 C25.08751422 56.53402586 25.09323024 59.51502649 25.09765625 62.49609375 C25.10281754 63.43150497 25.10797882 64.3669162 25.11329651 65.33067322 C25.11340981 66.62189842 25.11340981 66.62189842 25.11352539 67.93920898 C25.115746 68.70087875 25.11796661 69.46254852 25.12025452 70.24729919 C25 72 25 72 24 73 C16.08 73 8.16 73 0 73 C0 48.91 0 24.82 0 0 Z " fill="#1A4A8F" transform="translate(760,99)"/>
<path d="M0 0 C8.25 0 16.5 0 25 0 C25 10.89 25 21.78 25 33 C26.98 32.505 26.98 32.505 29 32 C29 31.34 29 30.68 29 30 C37.92123304 25.19625913 47.73581224 24.57779456 57.59375 26.5078125 C62.19277828 28.04671812 65.58234714 30.66778846 69 34 C69 34.66 69 35.32 69 36 C69.66 36 70.32 36 71 36 C76.36610893 45.48012577 77.31797111 54.93751154 77.1953125 65.69921875 C77.1924826 66.6602803 77.18965271 67.62134186 77.18673706 68.61152649 C77.17567314 71.63698567 77.15059573 74.66213253 77.125 77.6875 C77.11495233 79.75715714 77.10582964 81.82681899 77.09765625 83.89648438 C77.07749318 88.93120241 77.03831939 93.96525771 77 99 C68.42 99 59.84 99 51 99 C50.96261719 95.88175781 50.92523438 92.76351562 50.88671875 89.55078125 C50.8404876 86.52572678 50.78925965 83.50079526 50.73754883 80.47583008 C50.70432578 78.37597139 50.6762857 76.27602397 50.65356445 74.17602539 C50.61997064 71.15472656 50.56765166 68.13423899 50.51171875 65.11328125 C50.50532883 64.17664139 50.4989389 63.24000153 50.49235535 62.27497864 C50.38294873 57.40806784 50.24112051 53.90167626 47 50 C43.27661917 47.51774611 40.31288496 47.46905772 36 48 C31.82094145 49.57700323 29.29227383 51.13932829 27 55 C26.10557535 57.68327394 25.85418313 59.34149739 25.79467773 62.10424805 C25.77473251 62.92487228 25.75478729 63.74549652 25.73423767 64.59098816 C25.70916893 65.9129998 25.70916893 65.9129998 25.68359375 67.26171875 C25.66281265 68.16751175 25.64203156 69.07330475 25.62062073 70.00654602 C25.55523442 72.90012016 25.49629096 75.79378507 25.4375 78.6875 C25.3943044 80.64909793 25.35068977 82.61068668 25.30664062 84.57226562 C25.19877557 89.38141874 25.09962093 94.19064073 25 99 C16.75 99 8.5 99 0 99 C0 66.33 0 33.66 0 0 Z " fill="#D7DEE9" transform="translate(289,73)"/>
<path d="M0 0 C0.91587891 -0.00386719 1.83175781 -0.00773437 2.77539062 -0.01171875 C13.27745998 0.0033596 21.37320643 0.95189768 29.06640625 8.62109375 C36.80427238 17.57615231 37.87536502 24.91982045 37.7578125 36.40625 C37.7549826 37.46034058 37.75215271 38.51443115 37.74923706 39.60046387 C37.73810986 42.9420951 37.71301904 46.28345081 37.6875 49.625 C37.67746056 51.90103778 37.6683364 54.17707978 37.66015625 56.453125 C37.63990304 62.01060626 37.6007397 67.56749747 37.5625 73.125 C29.6425 73.125 21.7225 73.125 13.5625 73.125 C13.5625 70.485 13.5625 67.845 13.5625 65.125 C12.9025 65.125 12.2425 65.125 11.5625 65.125 C11.0675 67.105 11.0675 67.105 10.5625 69.125 C8.0875 69.62 8.0875 69.62 5.5625 70.125 C5.5625 70.785 5.5625 71.445 5.5625 72.125 C-3.92273461 75.04353373 -13.39731254 75.60595872 -22.4375 71.125 C-23.05367187 70.88136719 -23.66984375 70.63773437 -24.3046875 70.38671875 C-29.27216372 68.13749668 -31.36994129 64.75226028 -33.55859375 59.84765625 C-35.39194838 54.16833102 -35.31066962 48.75102266 -33.125 43.1875 C-30.70995509 38.80464072 -30.70995509 38.80464072 -28.4375 37.125 C-27.7775 37.125 -27.1175 37.125 -26.4375 37.125 C-26.4375 36.465 -26.4375 35.805 -26.4375 35.125 C-15.66966288 27.94644192 -0.74811897 29.82689533 11.5625 30.125 C10.5725 27.155 9.5825 24.185 8.5625 21.125 C-0.51025742 19.4519128 -9.20231604 18.69003584 -17.53515625 23.15234375 C-19.48986488 24.15177383 -21.29635937 24.6719747 -23.4375 25.125 C-24.61416004 22.87974054 -25.7789074 20.62955858 -26.9375 18.375 C-27.27136719 17.74078125 -27.60523438 17.1065625 -27.94921875 16.453125 C-29.70925533 13.00489007 -30.4375 11.07659931 -30.4375 7.125 C-28.23263181 6.13733987 -26.02412689 5.15981484 -23.8125 4.1875 C-23.19503906 3.90970703 -22.57757812 3.63191406 -21.94140625 3.34570312 C-14.57744705 0.12881568 -7.89607269 -0.03320003 0 0 Z " fill="#40679F" transform="translate(706.4375,98.875)"/>
<path d="M0 0 C4.59463212 3.56458552 8.76291977 7.14437965 12 12 C12 13.32 12 14.64 12 16 C12.66 16 13.32 16 14 16 C16.52173029 23.88040715 16 28.95160597 16 38 C-1.16 38 -18.32 38 -36 38 C-36 39.32 -36 40.64 -36 42 C-35.34 42 -34.68 42 -34 42 C-33.87625 42.78375 -33.7525 43.5675 -33.625 44.375 C-32.28915288 47.12677557 -32.28915288 47.12677557 -29.95703125 47.77734375 C-21.83446983 49.50260098 -14.30218665 50.52040126 -7 46 C-6.01 45.34 -5.02 44.68 -4 44 C-0.93245353 44.10225155 0.13295346 45.1193172 2.4375 47.1875 C3.7059375 48.5796875 3.7059375 48.5796875 5 50 C5.47179687 50.51433594 5.94359375 51.02867187 6.4296875 51.55859375 C10 55.60293079 10 55.60293079 10 59 C9.34 59 8.68 59 8 59 C8 59.66 8 60.32 8 61 C-2.05270242 69.7277044 -15.45366879 69.78911746 -28 69 C-38.70787718 67.9948277 -47.75434215 62.92592703 -55 55 C-61.77319948 45.14963629 -63.50584026 35.00973332 -61.53515625 23.21875 C-59.8881852 17.05966301 -57.09996023 10.91239474 -53 6 C-51.34229947 5.31134103 -49.67640279 4.64179117 -48 4 C-47.67 3.01 -47.34 2.02 -47 1 C-44.63671875 -0.3515625 -44.63671875 -0.3515625 -41.6875 -1.625 C-40.72199219 -2.05039063 -39.75648438 -2.47578125 -38.76171875 -2.9140625 C-26.97912252 -7.54710599 -10.63651155 -6.88524185 0 0 Z " fill="#B2C1D6" transform="translate(440,104)"/>
<path d="M0 0 C27.72 0 55.44 0 84 0 C84 6.93 84 13.86 84 21 C74.43 21 64.86 21 55 21 C55 44.76 55 68.52 55 93 C46.42 93 37.84 93 29 93 C29 69.24 29 45.48 29 21 C19.43 21 9.86 21 0 21 C0 14.07 0 7.14 0 0 Z " fill="#FCFCFC" transform="translate(197,79)"/>
<path d="M0 0 C8.91 0 17.82 0 27 0 C27.66 1.32 28.32 2.64 29 4 C29.99 4.33 30.98 4.66 32 5 C33.99396257 7.66083969 36 10.61242325 36 14 C36.99 14.33 37.98 14.66 39 15 C39 15.66 39 16.32 39 17 C43.25581675 13.13107568 46.28934435 8.81108452 49.44921875 4.01171875 C49.96097656 3.34785156 50.47273437 2.68398437 51 2 C51.66 2 52.32 2 53 2 C53 1.34 53 0.68 53 0 C61.58 0 70.16 0 79 0 C78.00163057 3.99347772 77.40283509 4.71961132 74.59130859 7.36230469 C70.94992267 11.10983718 67.95010727 15.45666745 64.8125 19.625 C64.08869141 20.57890625 63.36488281 21.5328125 62.61914062 22.515625 C57.52220764 28.17385393 57.52220764 28.17385393 55.125 34.75 C57.43886386 40.83024136 57.43886386 40.83024136 62 45 C65 49.5 65 49.5 65 52 C66.485 52.495 66.485 52.495 68 53 C70.32265612 55.58072903 71 56.45176068 71 60 C71.66 60 72.32 60 73 60 C77 64.35294118 77 64.35294118 77 68 C77.66 68 78.32 68 79 68 C79.33 69.32 79.66 70.64 80 72 C70.43 72 60.86 72 51 72 C46 63 46 63 45 60 C44.34 60 43.68 60 43 60 C42.34 58.02 41.68 56.04 41 54 C37.47130219 55.41147912 36.58544049 56.63093896 35 60 C34.38125 60.598125 33.7625 61.19625 33.125 61.8125 C31.22051968 63.77299445 30.16664801 65.32590475 28.875 67.6875 C27 71 27 71 25 72 C23.0406396 72.08510205 21.07837206 72.10717656 19.1171875 72.09765625 C17.95058594 72.09443359 16.78398438 72.09121094 15.58203125 72.08789062 C14.35871094 72.07951172 13.13539063 72.07113281 11.875 72.0625 C10.64394531 72.05798828 9.41289063 72.05347656 8.14453125 72.04882812 C5.09630608 72.0370133 2.04817686 72.02054028 -1 72 C-0.67 70.68 -0.34 69.36 0 68 C0.66 68 1.32 68 2 68 C2.2475 67.071875 2.495 66.14375 2.75 65.1875 C4.14295886 61.6354549 5.04254771 61.17459728 8 59 C8.9008486 57.39849139 9.79707613 55.79404969 10.66015625 54.171875 C13.04584534 50.30469385 16.05760957 46.92483646 18.9765625 43.453125 C21.97320893 39.9254883 21.97320893 39.9254883 23.375 35.625 C22.87563922 32.12947454 21.2463884 30.70668165 19 28 C16.94807005 25.18795012 14.92457757 22.35689372 12.90234375 19.5234375 C11.14136007 17.05472999 11.14136007 17.05472999 9.31640625 15.359375 C8 14 8 14 7 10.875 C6.67 9.92625 6.34 8.9775 6 8 C5.01 7.67 4.02 7.34 3 7 C3 6.01 3 5.02 3 4 C2.34 4 1.68 4 1 4 C0.67 2.68 0.34 1.36 0 0 Z " fill="#6684B1" transform="translate(589,100)"/>
<path d="M0 0 C8.14715315 4.36454633 12.26707958 9.40434497 15.75 17.9375 C18.23702005 27.93039139 16.46929793 38.22478171 13.5 47.875 C12.84 47.875 12.18 47.875 11.5 47.875 C11.2525 48.65875 11.005 49.4425 10.75 50.25 C9.34610901 53.19817108 8.49324263 53.7774777 5.5 54.875 C5.5 55.535 5.5 56.195 5.5 56.875 C4.25264433 57.5259259 3.00198168 58.17051669 1.75 58.8125 C1.05390625 59.17214844 0.3578125 59.53179687 -0.359375 59.90234375 C-7.08863958 62.95998404 -15.26355314 63.0218834 -22.328125 61.109375 C-29.22988094 58.10308867 -32.85125059 53.31112296 -36.5 46.875 C-37.04914062 45.99199219 -37.59828125 45.10898437 -38.1640625 44.19921875 C-40.00323772 39.62279153 -39.99152225 35.51379711 -39.9375 30.625 C-39.93065186 29.68785156 -39.92380371 28.75070312 -39.91674805 27.78515625 C-39.72556955 19.57092512 -38.44468322 13.55585402 -33.25 7.0625 C-23.53782259 -0.66309567 -12.29197801 -4.12157054 0 0 Z " fill="#333132" transform="translate(552.5,276.125)"/>
<path d="M0 0 C24.42 0 48.84 0 74 0 C74 6.6 74 13.2 74 20 C49.58 20 25.16 20 0 20 C0 13.4 0 6.8 0 0 Z " fill="#8DA5C7" transform="translate(508,152)"/>
<path d="M0 0 C24.42 0 48.84 0 74 0 C74 6.6 74 13.2 74 20 C49.58 20 25.16 20 0 20 C0 13.4 0 6.8 0 0 Z " fill="#8DA5C8" transform="translate(508,115)"/>
<path d="M0 0 C24.09 0 48.18 0 73 0 C73 6.6 73 13.2 73 20 C48.91 20 24.82 20 0 20 C0 13.4 0 6.8 0 0 Z " fill="#8EA4C7" transform="translate(508,79)"/>
<path d="M0 0 C5.36240461 3.6290276 9.07149755 8.01138806 11.3125 14.125 C11.3125 15.775 11.3125 17.425 11.3125 19.125 C-6.5075 19.125 -24.3275 19.125 -42.6875 19.125 C-41.04717862 10.92339309 -38.19322074 6.06317797 -31.8828125 0.5703125 C-22.99764533 -5.27935272 -9.19042198 -4.88852233 0 0 Z " fill="#323131" transform="translate(826.6875,273.875)"/>
<path d="M0 0 C1.69286133 -0.0299707 1.69286133 -0.0299707 3.41992188 -0.06054688 C9.70898786 -0.05684525 14.01248294 -0.0058348 18.6875 4.4375 C18.6875 5.0975 18.6875 5.7575 18.6875 6.4375 C19.6775 6.7675 20.6675 7.0975 21.6875 7.4375 C22.875 10 22.875 10 23.6875 12.4375 C24.3475 12.4375 25.0075 12.4375 25.6875 12.4375 C27.55915968 19.55880114 27.96747674 26.09297104 27.91796875 33.4375 C27.91751053 34.55439209 27.91705231 35.67128418 27.9165802 36.82202148 C27.91357574 39.16504998 27.9057441 41.50807679 27.89331055 43.85107422 C27.87491488 47.45417257 27.87280206 51.05701557 27.87304688 54.66015625 C27.86813629 56.94010641 27.86230999 59.22005482 27.85546875 61.5 C27.85435593 62.58216797 27.8532431 63.66433594 27.85209656 64.77929688 C27.84571671 65.77123047 27.83933685 66.76316406 27.83276367 67.78515625 C27.82895187 68.66179932 27.82514008 69.53844238 27.82121277 70.44165039 C27.6875 72.4375 27.6875 72.4375 26.6875 73.4375 C24.91890807 73.53696453 23.14638549 73.56830217 21.375 73.5703125 C20.29992187 73.57160156 19.22484375 73.57289063 18.1171875 73.57421875 C16.98539063 73.57035156 15.85359375 73.56648438 14.6875 73.5625 C13.55570313 73.56636719 12.42390625 73.57023437 11.2578125 73.57421875 C10.18273437 73.57292969 9.10765625 73.57164062 8 73.5703125 C7.00613281 73.56918457 6.01226563 73.56805664 4.98828125 73.56689453 C2.6875 73.4375 2.6875 73.4375 1.6875 72.4375 C1.57084523 71.10337273 1.52033631 69.76334855 1.49804688 68.42431641 C1.48132935 67.57318268 1.46461182 66.72204895 1.4473877 65.84512329 C1.43381226 64.91912323 1.42023682 63.99312317 1.40625 63.0390625 C1.38784058 62.09316254 1.36943115 61.14726257 1.35046387 60.17269897 C1.29151463 57.13603127 1.23880064 54.09930598 1.1875 51.0625 C1.11991133 47.07539985 1.04618812 43.08848209 0.96875 39.1015625 C0.95517456 38.1796109 0.94159912 37.2576593 0.9276123 36.30776978 C0.91089478 35.45033173 0.89417725 34.59289368 0.87695312 33.70947266 C0.86442505 32.95526031 0.85189697 32.20104797 0.83898926 31.42398071 C0.75242447 29.22698179 0.75242447 29.22698179 -0.3125 26.4375 C-3.96050559 24.01081794 -6.91508613 24.18962037 -11.12109375 24.7578125 C-14.92935265 25.93898371 -16.19520315 28.12922368 -18.3125 31.4375 C-19.6178813 35.3536439 -19.48757147 39.10774956 -19.5234375 43.19140625 C-19.55149005 44.94987936 -19.58015439 46.70834279 -19.609375 48.46679688 C-19.65075234 51.24080294 -19.68763828 54.01462521 -19.71386719 56.78881836 C-19.74136688 59.46505973 -19.78721756 62.14047862 -19.8359375 64.81640625 C-19.83919037 65.64974991 -19.84244324 66.48309357 -19.84579468 67.34169006 C-19.89599609 69.67797852 -19.89599609 69.67797852 -20.3125 73.4375 C-23.70804187 75.70119458 -24.6576557 75.64192547 -28.6015625 75.44921875 C-29.62507812 75.40216797 -30.64859375 75.35511719 -31.703125 75.30664062 C-32.77046875 75.24669922 -33.8378125 75.18675781 -34.9375 75.125 C-36.01257813 75.07666016 -37.08765625 75.02832031 -38.1953125 74.97851562 C-46.16917047 74.58082953 -46.16917047 74.58082953 -47.3125 73.4375 C-47.41394885 72.01609607 -47.44817027 70.58980119 -47.4543457 69.16479492 C-47.46138016 68.25682663 -47.46841461 67.34885834 -47.47566223 66.41337585 C-47.47982651 65.42489151 -47.48399078 64.43640717 -47.48828125 63.41796875 C-47.51148108 61.34308883 -47.53559848 59.26821901 -47.56054688 57.19335938 C-47.59567727 53.90805332 -47.62500769 50.62311756 -47.63842773 47.33764648 C-47.65388296 44.17645931 -47.69408244 41.01636748 -47.73828125 37.85546875 C-47.73637283 36.8730571 -47.73446442 35.89064545 -47.73249817 34.87846375 C-47.76523749 29.48716912 -47.76523749 29.48716912 -50.19604492 24.81738281 C-52.76243829 23.14414999 -54.26448301 22.93030449 -57.3125 23 C-58.158125 23.00128906 -59.00375 23.00257812 -59.875 23.00390625 C-62.79095281 23.52260939 -64.14211278 24.44953756 -66.3125 26.4375 C-66.9725 27.4275 -67.6325 28.4175 -68.3125 29.4375 C-67.99866004 26.53448038 -67.77471792 24.8964242 -65.66796875 22.8046875 C-62.61657614 21.03356409 -60.39069763 20.93596585 -56.875 20.875 C-55.76253906 20.83246094 -54.65007813 20.78992188 -53.50390625 20.74609375 C-49.95022607 21.51598529 -48.57084924 22.66073636 -46.34669495 25.49531555 C-44.30772658 29.32443178 -44.70682542 33.41114522 -44.82421875 37.6484375 C-44.83129349 38.61657379 -44.83836823 39.58471008 -44.84565735 40.58218384 C-44.87353871 43.6597579 -44.9362662 46.73548036 -45 49.8125 C-45.02509093 51.90492155 -45.0479027 53.99737176 -45.06835938 56.08984375 C-45.11908463 61.20700795 -45.21694864 66.32019365 -45.3125 71.4375 C-37.7225 71.4375 -30.1325 71.4375 -22.3125 71.4375 C-22.33570313 68.69179687 -22.35890625 65.94609375 -22.3828125 63.1171875 C-22.39842767 60.44629376 -22.41056179 57.77540518 -22.42236328 55.10449219 C-22.43239631 53.25388294 -22.44602586 51.40328945 -22.46337891 49.55273438 C-22.48774608 46.8866791 -22.49901023 44.22083416 -22.5078125 41.5546875 C-22.51813507 40.73257782 -22.52845764 39.91046814 -22.53909302 39.06344604 C-22.53998126 34.47497442 -22.204084 30.70915844 -20.3125 26.4375 C-16.65566206 22.96819221 -14.0130962 21.53197757 -8.9375 21.25 C-5.41929099 21.43197633 -3.33559217 21.67402957 -0.3125 23.4375 C3.39974705 28.00048207 3.15904925 32.50021883 3.19921875 38.11328125 C3.21716995 39.0384404 3.23512115 39.96359955 3.25361633 40.91679382 C3.30764079 43.86115003 3.34158991 46.80534484 3.375 49.75 C3.40818001 51.75067346 3.4426703 53.75132565 3.47851562 55.75195312 C3.56336284 60.64701884 3.63021166 65.54203733 3.6875 70.4375 C6.97914829 70.46645225 10.27076399 70.4842823 13.5625 70.5 C14.96822266 70.51256836 14.96822266 70.51256836 16.40234375 70.52539062 C17.29824219 70.52861328 18.19414063 70.53183594 19.1171875 70.53515625 C19.94460449 70.54039307 20.77202148 70.54562988 21.62451172 70.55102539 C23.75161757 70.57102138 23.75161757 70.57102138 25.6875 69.4375 C25.6875 52.9375 25.6875 36.4375 25.6875 19.4375 C25.0275 19.4375 24.3675 19.4375 23.6875 19.4375 C23.1925 16.4675 23.1925 16.4675 22.6875 13.4375 C22.0275 13.4375 21.3675 13.4375 20.6875 13.4375 C20.6875 12.1175 20.6875 10.7975 20.6875 9.4375 C19.3675 8.7775 18.0475 8.1175 16.6875 7.4375 C16.6875 6.7775 16.6875 6.1175 16.6875 5.4375 C13.7175 5.1075 10.7475 4.7775 7.6875 4.4375 C7.6875 3.7775 7.6875 3.1175 7.6875 2.4375 C4.87493719 2.41065688 2.06262759 2.39073812 -0.75 2.375 C-1.55244141 2.36662109 -2.35488281 2.35824219 -3.18164062 2.34960938 C-5.22545221 2.3409857 -7.26933902 2.3852185 -9.3125 2.4375 C-9.6425 2.7675 -9.9725 3.0975 -10.3125 3.4375 C-11.97867115 3.47813832 -13.64638095 3.480221 -15.3125 3.4375 C-11.525974 -1.39927988 -5.62661561 -0.03498743 0 0 Z " fill="#264066" transform="translate(855.3125,98.5625)"/>
<path d="M0 0 C17.16 0 34.32 0 52 0 C52 0.33 52 0.66 52 1 C43.75 1 35.5 1 27 1 C27.66 1.99 28.32 2.98 29 4 C34.55053286 3.25640327 34.55053286 3.25640327 40 2 C40 3.98 40 5.96 40 8 C39.34 8 38.68 8 38 8 C38.66 8.33 39.32 8.66 40 9 C39.67 9.66 39.34 10.32 39 11 C38.443125 10.319375 37.88625 9.63875 37.3125 8.9375 C35.16651144 6.69479404 35.16651144 6.69479404 32.375 7.125 C29.85594875 7.86467913 29.85594875 7.86467913 28 10 C21.83861235 13.3607569 15.1283331 12.48242287 8.5625 10.8125 C4.25626484 9.42382261 4.25626484 9.42382261 2.375 6.3125 C2.189375 5.1678125 2.189375 5.1678125 2 4 C1.34 4 0.68 4 0 4 C0 2.68 0 1.36 0 0 Z " fill="#383A3F" transform="translate(404,142)"/>
<path d="M0 0 C0 0.66 0 1.32 0 2 C0.86625 2.061875 0.86625 2.061875 1.75 2.125 C5.18961098 3.46262649 6.2413627 5.85957625 8 9 C8 9.99 8 10.98 8 12 C-1.57 12 -11.14 12 -21 12 C-18.57410591 3.5093707 -18.57410591 3.5093707 -15.12890625 0.8671875 C-10.39536114 -1.06097216 -5.00758671 -0.33433442 0 0 Z " fill="#343438" transform="translate(424,117)"/>
<path d="M0 0 C24.42 0 48.84 0 74 0 C74 6.6 74 13.2 74 20 C49.58 20 25.16 20 0 20 C0 13.4 0 6.8 0 0 Z M1 1 C1 6.61 1 12.22 1 18 C9.83155652 18.02256668 18.66309398 18.0409242 27.49467278 18.05181217 C31.59525496 18.05703709 35.69581645 18.06412768 39.79638672 18.07543945 C43.75154957 18.08628218 47.70669248 18.09227979 51.66186905 18.09487724 C53.17298827 18.09672898 54.68410637 18.10034482 56.19521713 18.10573006 C58.30708958 18.11295886 60.41887895 18.11399016 62.53076172 18.11352539 C63.73433319 18.115746 64.93790466 18.11796661 66.177948 18.12025452 C68.95127165 18.1946679 68.95127165 18.1946679 71 17 C71.69555207 14.59183867 71.69555207 14.59183867 72.125 11.75 C72.29257812 10.79609375 72.46015625 9.8421875 72.6328125 8.859375 C73.10614117 5.65392968 73.10614117 5.65392968 73 1 C49.24 1 25.48 1 1 1 Z " fill="#828FA5" transform="translate(508,115)"/>
<path d="M0 0 C22.77 0 45.54 0 69 0 C69 0.33 69 0.66 69 1 C46.89 1.33 24.78 1.66 2 2 C2 7.28 2 12.56 2 18 C3.97315186 17.99476318 5.94630371 17.98952637 7.97924805 17.98413086 C14.50513992 17.96799305 21.03102706 17.9565094 27.5569334 17.94818783 C31.51282048 17.9429736 35.46868592 17.93590246 39.42456055 17.92456055 C43.2435763 17.91367979 47.06257127 17.90771216 50.88160133 17.90512276 C52.33721048 17.90327786 53.79281852 17.89967526 55.24841881 17.89426994 C57.29023047 17.88699064 59.33195671 17.88601196 61.3737793 17.88647461 C62.53515915 17.884254 63.696539 17.88203339 64.89311218 17.87974548 C68 18 68 18 73 19 C73 12.73 73 6.46 73 0 C73.33 0 73.66 0 74 0 C74 6.6 74 13.2 74 20 C49.58 20 25.16 20 0 20 C0 13.4 0 6.8 0 0 Z " fill="#8896AD" transform="translate(508,152)"/>
<path d="M0 0 C1.11084961 0.02030273 1.11084961 0.02030273 2.24414062 0.04101562 C4.05891075 0.07614021 5.87330288 0.12994028 7.6875 0.1875 C7.90625 6.8359375 7.90625 6.8359375 5.9375 10 C2.60650447 13.23846788 -0.16539882 14.48972479 -4.8125 14.625 C-8.31810253 14.53837061 -9.06266458 14.39468059 -11.875 12.0625 C-13.55458389 8.70333222 -14.03570212 6.88386638 -13.3125 3.1875 C-9.16701948 -0.24296547 -5.14195365 -0.17921018 0 0 Z " fill="#313031" transform="translate(710.3125,142.8125)"/>
<path d="M0 0 C1.11246094 -0.04253906 2.22492187 -0.08507812 3.37109375 -0.12890625 C6.92477393 0.64098529 8.30415076 1.78573636 10.52830505 4.62031555 C12.56727342 8.44943178 12.16817458 12.53614522 12.05078125 16.7734375 C12.04370651 17.74157379 12.03663177 18.70971008 12.02934265 19.70718384 C12.00146129 22.7847579 11.9387338 25.86048036 11.875 28.9375 C11.84990907 31.02992155 11.8270973 33.12237176 11.80664062 35.21484375 C11.75591537 40.33200795 11.65805136 45.44519365 11.5625 50.5625 C19.1525 50.5625 26.7425 50.5625 34.5625 50.5625 C34.5625 37.6925 34.5625 24.8225 34.5625 11.5625 C34.8925 11.5625 35.2225 11.5625 35.5625 11.5625 C35.58714705 17.24080078 35.60533462 22.91907069 35.61743164 28.59741211 C35.62247256 30.53068585 35.62930519 32.46395576 35.63793945 34.3972168 C35.65001565 37.16976872 35.65573057 39.94227041 35.66015625 42.71484375 C35.66531754 43.58463364 35.67047882 44.45442352 35.67579651 45.35057068 C35.67599185 47.42155814 35.62458168 49.49244324 35.5625 51.5625 C34.5625 52.5625 34.5625 52.5625 32.15405273 52.67602539 C31.11192627 52.67078857 30.0697998 52.66555176 28.99609375 52.66015625 C27.87138672 52.65693359 26.74667969 52.65371094 25.58789062 52.65039062 C24.40388672 52.64201172 23.21988281 52.63363281 22 52.625 C20.81212891 52.62048828 19.62425781 52.61597656 18.40039062 52.61132812 C15.45437774 52.59949675 12.50846319 52.58301287 9.5625 52.5625 C9.55885437 51.99509094 9.55520874 51.42768188 9.55145264 50.84307861 C9.50964554 44.93793768 9.44031314 39.0335753 9.35498047 33.12890625 C9.3267529 30.92520941 9.3055473 28.721411 9.29150391 26.51757812 C9.27009953 23.34973068 9.22346102 20.18310692 9.171875 17.015625 C9.17064636 16.03007629 9.16941772 15.04452759 9.16815186 14.02911377 C9.1159533 8.62294147 9.1159533 8.62294147 6.67675781 3.94018555 C4.11174233 2.26877881 2.60846553 2.0553514 -0.4375 2.125 C-1.283125 2.12628906 -2.12875 2.12757812 -3 2.12890625 C-5.91595281 2.64760939 -7.26711278 3.57453756 -9.4375 5.5625 C-10.0975 6.5525 -10.7575 7.5425 -11.4375 8.5625 C-11.12366004 5.65948038 -10.89971792 4.0214242 -8.79296875 1.9296875 C-5.74157614 0.15856409 -3.51569763 0.06096585 0 0 Z " fill="#24416C" transform="translate(798.4375,119.4375)"/>
<path d="M0 0 C0.66 0.33 1.32 0.66 2 1 C3.36236741 7.47502557 3.17020772 14.39378759 3.203125 20.98828125 C3.20882507 21.89450729 3.21452515 22.80073334 3.22039795 23.73442078 C3.22976463 25.63095967 3.23634832 27.52751422 3.24023438 29.42407227 C3.25003452 32.32271021 3.28117307 35.22066554 3.3125 38.11914062 C3.31902289 39.97135 3.32427615 41.82356438 3.328125 43.67578125 C3.3404718 44.53730301 3.3528186 45.39882477 3.36553955 46.28645325 C3.34813451 50.97375378 3.14620224 54.24054683 0 58 C-0.66 58 -1.32 58 -2 58 C-2 57.34 -2 56.68 -2 56 C-2.98395752 56.06900513 -2.98395752 56.06900513 -3.98779297 56.1394043 C-6.94937508 56.33812063 -9.91189135 56.5130915 -12.875 56.6875 C-13.90753906 56.76033203 -14.94007813 56.83316406 -16.00390625 56.90820312 C-17.48310547 56.99038086 -17.48310547 56.99038086 -18.9921875 57.07421875 C-19.90339355 57.13182373 -20.81459961 57.18942871 -21.75341797 57.2487793 C-22.49479004 57.16668213 -23.23616211 57.08458496 -24 57 C-26.04444176 53.93333736 -26.25483535 53.25785914 -26.30297852 49.79150391 C-26.31962051 48.94697662 -26.33626251 48.10244934 -26.35340881 47.23233032 C-26.36603004 45.86822525 -26.36603004 45.86822525 -26.37890625 44.4765625 C-26.39590073 43.53823578 -26.4128952 42.59990906 -26.43040466 41.63314819 C-26.48356943 38.63050082 -26.52382308 35.6278662 -26.5625 32.625 C-26.60651127 29.62934791 -26.65333085 26.63379985 -26.70530701 23.63827515 C-26.7371041 21.77411703 -26.76404301 19.90986812 -26.78553772 18.04556274 C-26.85107498 13.91199402 -26.96542285 10.0309419 -28 6 C-27.01 6.495 -27.01 6.495 -26 7 C-25.08812389 9.73562834 -24.85269741 11.46145475 -24.79467773 14.2878418 C-24.77473251 15.14850754 -24.75478729 16.00917328 -24.73423767 16.8959198 C-24.71752518 17.82100845 -24.70081268 18.74609711 -24.68359375 19.69921875 C-24.66281265 20.64940384 -24.64203156 21.59958893 -24.62062073 22.5785675 C-24.55521948 25.61480456 -24.49628396 28.65112831 -24.4375 31.6875 C-24.39430583 33.74545169 -24.35069124 35.80339459 -24.30664062 37.86132812 C-24.19875631 42.9074645 -24.09961263 47.95366639 -24 53 C-16.08 53 -8.16 53 0 53 C0 35.51 0 18.02 0 0 Z " fill="#2A3342" transform="translate(882,118)"/>
<path d="M0 0 C7.92 0 15.84 0 24 0 C24 0.66 24 1.32 24 2 C16.41 2 8.82 2 1 2 C1.33 24.44 1.66 46.88 2 70 C9.26 70.33 16.52 70.66 24 71 C24 58.79 24 46.58 24 34 C24.33 34 24.66 34 25 34 C25.02464849 39.39346988 25.04283531 44.78690725 25.05493164 50.18041992 C25.05997231 52.01668875 25.06680477 53.85295354 25.07543945 55.68920898 C25.08751672 58.32276401 25.09323081 60.95626616 25.09765625 63.58984375 C25.10281754 64.41588608 25.10797882 65.24192841 25.11329651 66.09300232 C25.11349205 68.06236368 25.06204152 70.03161614 25 72 C24.67 72.33 24.34 72.66 24 73 C16.08 73 8.16 73 0 73 C0 48.91 0 24.82 0 0 Z " fill="#264473" transform="translate(760,99)"/>
<path d="M0 0 C0 0.66 0 1.32 0 2 C1.3605249 1.75660889 1.3605249 1.75660889 2.74853516 1.50830078 C8.15408608 0.74120207 13.5744127 0.85714344 19.0234375 0.8671875 C20.16535553 0.86623077 21.30727356 0.86527405 22.48379517 0.86428833 C24.88584448 0.86361015 27.28789565 0.8654391 29.68994141 0.86962891 C33.38317922 0.87501192 37.07629705 0.8696565 40.76953125 0.86328125 C43.10416694 0.86394151 45.43880255 0.8652216 47.7734375 0.8671875 C48.88375336 0.86516327 49.99406921 0.86313904 51.13803101 0.86105347 C52.15644073 0.86420563 53.17485046 0.86735779 54.22412109 0.87060547 C55.12456146 0.87140106 56.02500183 0.87219666 56.95272827 0.87301636 C59 1 59 1 60 2 C61.51469448 2.23192865 63.03754562 2.41215238 64.5625 2.5625 C65.80193359 2.68818359 65.80193359 2.68818359 67.06640625 2.81640625 C67.70449219 2.87699219 68.34257813 2.93757813 69 3 C69 3.33 69 3.66 69 4 C44.91 4 20.82 4 -4 4 C-4 3.01 -4 2.02 -4 1 C-2 0 -2 0 0 0 Z " fill="#393D4A" transform="translate(512,75)"/>
<path d="M0 0 C2.4375 2 2.4375 2 4 4 C3.40832031 3.89300781 2.81664062 3.78601563 2.20703125 3.67578125 C-1.51991303 3.11035577 -4.21639561 2.72138511 -7.8125 4 C-11.92837754 7.76308803 -14.17226147 11.80871357 -14.49829102 17.34301758 C-14.51904584 18.94338865 -14.5200601 20.54410712 -14.50390625 22.14453125 C-14.51332748 22.99552902 -14.52274872 23.84652679 -14.53245544 24.72331238 C-14.56096017 27.41995807 -14.56418715 30.1157162 -14.5625 32.8125 C-14.56610364 35.52700532 -14.57554024 38.24087474 -14.60325623 40.95524597 C-14.62009859 42.63901141 -14.62287805 44.32298788 -14.61024475 46.00679016 C-14.63110352 48.30395508 -14.63110352 48.30395508 -15 52 C-18.41238523 54.27492349 -19.36044265 54.19555565 -23.32421875 53.9765625 C-24.35224609 53.925 -25.38027344 53.8734375 -26.43945312 53.8203125 C-27.51130859 53.75585938 -28.58316406 53.69140625 -29.6875 53.625 C-31.31268555 53.53992188 -31.31268555 53.53992188 -32.97070312 53.453125 C-35.64780007 53.31160446 -38.32396576 53.16018849 -41 53 C-41 52.67 -41 52.34 -41 52 C-33.08 51.67 -25.16 51.34 -17 51 C-16.93941406 47.93074219 -16.87882813 44.86148438 -16.81640625 41.69921875 C-16.75461907 38.730525 -16.69123044 35.76186947 -16.62768555 32.79321289 C-16.58434197 30.72814324 -16.54266648 28.66303788 -16.50268555 26.59790039 C-16.44496917 23.63156365 -16.38127849 20.66540655 -16.31640625 17.69921875 C-16.29969376 16.7741301 -16.28298126 15.84904144 -16.26576233 14.8959198 C-16.24581711 14.03525406 -16.22587189 13.17458832 -16.20532227 12.2878418 C-16.18977798 11.53061325 -16.1742337 10.7733847 -16.15821838 9.99320984 C-15.88543994 6.5567907 -15.20746674 5.18562813 -12.625 2.875 C-8.43039749 -0.12114465 -5.08017701 -0.44562956 0 0 Z " fill="#28364A" transform="translate(850,120)"/>
<path d="M0 0 C23.48873819 -0.25938484 23.48873819 -0.25938484 28 3.5 C28.66 4.325 29.32 5.15 30 6 C31.02708333 7.22708333 31.02708333 7.22708333 33.1875 7.3125 C36.9215735 6.89760294 39.02618922 5.21306849 42 3 C42.66 3.33 43.32 3.66 44 4 C41.63707344 6.52588702 40.33537489 7.88820837 37 9 C36.67 9.66 36.34 10.32 36 11 C32.8125 11.3125 32.8125 11.3125 29 11 C26.01912425 8.54905772 24.13648002 6.20472002 22 3 C19.9743508 2.55232151 19.9743508 2.55232151 17.640625 2.63671875 C16.33738281 2.63768555 16.33738281 2.63768555 15.0078125 2.63867188 C14.09773437 2.65478516 13.18765625 2.67089844 12.25 2.6875 C11.35539063 2.68427734 10.46078125 2.68105469 9.5390625 2.67773438 C3.74736283 2.72471719 -1.41407184 2.94646881 -6.125 6.6875 C-8 8 -8 8 -10.25 7.6875 C-10.8275 7.460625 -11.405 7.23375 -12 7 C-11.01 6.67 -10.02 6.34 -9 6 C-8.34 5.01 -7.68 4.02 -7 3 C-3.375 2.3125 -3.375 2.3125 0 2 C0 1.34 0 0.68 0 0 Z " fill="#25416A" transform="translate(796,99)"/>
<path d="M0 0 C0 0.99 0 1.98 0 3 C-2.13391026 2.54273352 -3.89360563 2.05870034 -5.8125 1 C-11.78992422 -1.73253679 -19.00004504 -1.18292469 -25.4375 -1.1875 C-26.34048828 -1.19974609 -27.24347656 -1.21199219 -28.17382812 -1.22460938 C-33.82492883 -1.23688548 -38.57998737 -0.60358804 -44 1 C-44.9796875 1.28101562 -45.959375 1.56203125 -46.96875 1.8515625 C-48.22171875 2.23441406 -48.22171875 2.23441406 -49.5 2.625 C-50.3559375 2.88539062 -51.211875 3.14578125 -52.09375 3.4140625 C-52.7228125 3.60742188 -53.351875 3.80078125 -54 4 C-54.33 3.34 -54.66 2.68 -55 2 C-37.59949232 -4.81464749 -17.70145848 -7.40242809 0 0 Z " fill="#2A2E3C" transform="translate(732,101)"/>
<path d="M0 0 C1.11084961 0.02030273 1.11084961 0.02030273 2.24414062 0.04101562 C4.05891075 0.07614021 5.87330288 0.12994028 7.6875 0.1875 C7.90625 6.8359375 7.90625 6.8359375 5.9375 10 C2.60650447 13.23846788 -0.16539882 14.48972479 -4.8125 14.625 C-8.31810253 14.53837061 -9.06266458 14.39468059 -11.875 12.0625 C-13.55458389 8.70333222 -14.03570212 6.88386638 -13.3125 3.1875 C-9.16701948 -0.24296547 -5.14195365 -0.17921018 0 0 Z M-9.3125 2.1875 C-11.59388945 4.94448184 -11.59388945 4.94448184 -11.125 7.75 C-10.47877558 10.52005117 -10.47877558 10.52005117 -7.3125 12.1875 C-2.65832831 12.52972445 -2.65832831 12.52972445 1.6875 11.1875 C1.6875 10.1975 1.6875 9.2075 1.6875 8.1875 C2.6775 8.1875 3.6675 8.1875 4.6875 8.1875 C5.0175 5.8775 5.3475 3.5675 5.6875 1.1875 C3.75007659 1.16046619 1.81254521 1.14108875 -0.125 1.125 C-1.74341797 1.10759766 -1.74341797 1.10759766 -3.39453125 1.08984375 C-6.37762169 1.05125234 -6.37762169 1.05125234 -9.3125 2.1875 Z " fill="#283646" transform="translate(710.3125,142.8125)"/>
<path d="M0 0 C0.66 0 1.32 0 2 0 C2 1.98 2 3.96 2 6 C3.32 5.67 4.64 5.34 6 5 C6.4640625 6.175625 6.4640625 6.175625 6.9375 7.375 C7.92875038 9.92330128 7.92875038 9.92330128 9 12 C8.34 12 7.68 12 7 12 C6.67 13.32 6.34 14.64 6 16 C14.58 16 23.16 16 32 16 C32 16.33 32 16.66 32 17 C23.09 17 14.18 17 5 17 C4.67 15.68 4.34 14.36 4 13 C3.01 13 2.02 13 1 13 C1.33 13.99 1.66 14.98 2 16 C1.34 16 0.68 16 0 16 C0 10.72 0 5.44 0 0 Z " fill="#31353E" transform="translate(582,156)"/>
<path d="M0 0 C0.33 0 0.66 0 1 0 C1 15.18 1 30.36 1 46 C-7.58 46 -16.16 46 -25 46 C-25 45.34 -25 44.68 -25 44 C-17.08 43.67 -9.16 43.34 -1 43 C-0.67 28.81 -0.34 14.62 0 0 Z " fill="#25374E" transform="translate(785,128)"/>
<path d="M0 0 C4.45821166 -0.08674429 8.91620804 -0.14030513 13.375 -0.1875 C14.64601563 -0.21263672 15.91703125 -0.23777344 17.2265625 -0.26367188 C18.43828125 -0.27333984 19.65 -0.28300781 20.8984375 -0.29296875 C22.01911621 -0.3086792 23.13979492 -0.32438965 24.29443359 -0.34057617 C25.18727051 -0.22818604 26.08010742 -0.1157959 27 0 C27.66 0.99 28.32 1.98 29 3 C20.75 3 12.5 3 4 3 C4.33 4.65 4.66 6.3 5 8 C4.34 7.67 3.68 7.34 3 7 C3 6.01 3 5.02 3 4 C2.34 4 1.68 4 1 4 C0.67 2.68 0.34 1.36 0 0 Z " fill="#6B82A6" transform="translate(589,100)"/>
<path d="M0 0 C1.5 1.25 1.5 1.25 3 3 C3 4.32 3 5.64 3 7 C2.40687012 7.01458252 1.81374023 7.02916504 1.20263672 7.04418945 C-10.51874327 7.36518331 -21.6299107 7.91494164 -33 11 C-32.31640625 9.04296875 -32.31640625 9.04296875 -31 7 C-28.65234375 6.42578125 -28.65234375 6.42578125 -25.9375 6.3125 C-22.66194849 6.41903541 -22.66194849 6.41903541 -20 5 C-18.5112814 4.91330568 -17.018555 4.89296506 -15.52734375 4.90234375 C-14.62822266 4.90556641 -13.72910156 4.90878906 -12.80273438 4.91210938 C-11.85720703 4.92048828 -10.91167969 4.92886719 -9.9375 4.9375 C-8.98810547 4.94201172 -8.03871094 4.94652344 -7.06054688 4.95117188 C-4.70696935 4.9629989 -2.35351523 4.97947975 0 5 C0 3.35 0 1.7 0 0 Z " fill="#2D313F" transform="translate(715,122)"/>
<path d="M0 0 C0.33 1.32 0.66 2.64 1 4 C-8.57 4 -18.14 4 -28 4 C-25.03065503 1.03065503 -21.67786725 1.57417925 -17.6875 1.4375 C-11.74653245 1.20066754 -5.89241506 0 0 0 Z " fill="#647998" transform="translate(668,168)"/>
<path d="M0 0 C2 2 2 2 2 6 C1.34 6 0.68 6 0 6 C0.33 8.31 0.66 10.62 1 13 C0.34 12.01 -0.32 11.02 -1 10 C-0.42547254 13.93075644 -0.42547254 13.93075644 2 17 C2 17.99 2 18.98 2 20 C-1 19 -1 19 -2.6875 17 C-4.46727459 12.93194379 -4.75194516 9.37711234 -4 5 C-2 1.9375 -2 1.9375 0 0 Z " fill="#424141" transform="translate(253,240)"/>
<path d="M0 0 C1.23459961 -0.00580078 1.23459961 -0.00580078 2.49414062 -0.01171875 C8.56078396 -0.00171604 8.56078396 -0.00171604 9.6875 1.125 C9.72813832 2.79117115 9.730221 4.45888095 9.6875 6.125 C10.6775 5.465 11.6675 4.805 12.6875 4.125 C14.875 4.5 14.875 4.5 16.6875 5.125 C15.6975 5.455 14.7075 5.785 13.6875 6.125 C12.6975 7.61 12.6975 7.61 11.6875 9.125 C10.6975 9.125 9.7075 9.125 8.6875 9.125 C8.6875 6.815 8.6875 4.505 8.6875 2.125 C0.7675 2.125 -7.1525 2.125 -15.3125 2.125 C-15.3125 1.795 -15.3125 1.465 -15.3125 1.125 C-10.16611609 0.07743235 -5.22493571 -0.02514003 0 0 Z " fill="#2A313C" transform="translate(775.3125,96.875)"/>
<path d="M0 0 C9.57 0.33 19.14 0.66 29 1 C28.67 1.99 28.34 2.98 28 4 C28 3.34 28 2.68 28 2 C19.42 2 10.84 2 2 2 C2 2.66 2 3.32 2 4 C1.34 4 0.68 4 0 4 C-0.268125 4.598125 -0.53625 5.19625 -0.8125 5.8125 C-1.98493467 7.97224808 -3.19369282 9.35790256 -5 11 C-4.75 7.625 -4.75 7.625 -4 4 C-1.9375 2.5625 -1.9375 2.5625 0 2 C0 1.34 0 0.68 0 0 Z " fill="#37404F" transform="translate(640,98)"/>
<path d="M0 0 C1.41152344 0.11408203 1.41152344 0.11408203 2.8515625 0.23046875 C5.62969067 0.87124444 6.61580419 1.62236025 8.375 3.8125 C7.39660156 3.76609375 6.41820312 3.7196875 5.41015625 3.671875 C-1.60608446 3.47870416 -7.47878587 3.36517506 -13.79296875 6.83984375 C-15.7201603 7.86302221 -17.49718429 8.36429048 -19.625 8.8125 C-19.955 7.4925 -20.285 6.1725 -20.625 4.8125 C-19.903125 4.874375 -19.18125 4.93625 -18.4375 5 C-15.04145157 4.77359677 -13.45408908 3.6514079 -10.625 1.8125 C-6.84865536 -0.01166648 -4.16603604 -0.39594557 0 0 Z " fill="#486691" transform="translate(702.625,115.1875)"/>
<path d="M0 0 C2.58361518 -0.05407567 5.16609255 -0.093707 7.75 -0.125 C8.84441406 -0.15013672 8.84441406 -0.15013672 9.9609375 -0.17578125 C13.8044624 -0.21072239 16.74606772 -0.17499684 20 2 C18.77023437 2.04898438 17.54046875 2.09796875 16.2734375 2.1484375 C14.64060434 2.22351029 13.00779288 2.29905615 11.375 2.375 C10.56675781 2.4059375 9.75851562 2.436875 8.92578125 2.46875 C3.4008844 2.73825716 -1.64115903 3.12680276 -6.125 6.6875 C-8 8 -8 8 -10.25 7.6875 C-10.8275 7.460625 -11.405 7.23375 -12 7 C-11.01 6.67 -10.02 6.34 -9 6 C-8.34 5.01 -7.68 4.02 -7 3 C-3.375 2.3125 -3.375 2.3125 0 2 C0 1.34 0 0.68 0 0 Z " fill="#244675" transform="translate(796,99)"/>
<path d="M0 0 C0.66 0.33 1.32 0.66 2 1 C0.125 6.875 0.125 6.875 -1 8 C-1.16017166 10.80976518 -1.25950534 13.59773596 -1.31640625 16.41015625 C-1.33718735 17.25219101 -1.35796844 18.09422577 -1.37937927 18.96177673 C-1.44496812 21.66193179 -1.50380276 24.36218717 -1.5625 27.0625 C-1.60567637 28.88868241 -1.64929036 30.71485454 -1.69335938 32.54101562 C-1.80065894 37.02723992 -1.90189966 41.5135655 -2 46 C-2.33 46 -2.66 46 -3 46 C-3 32.14 -3 18.28 -3 4 C-2.34 4 -1.68 4 -1 4 C-0.67 2.68 -0.34 1.36 0 0 Z " fill="#2A2F3D" transform="translate(789,124)"/>
<path d="M0 0 C1.0725 0.165 2.145 0.33 3.25 0.5 C11.51904763 1.52630024 19.77901594 1.26476678 28 0 C28 0.66 28 1.32 28 2 C18.34887889 4.96957573 9.26013665 5.27390922 0 1 C0 0.67 0 0.34 0 0 Z " fill="#47628D" transform="translate(684,169)"/>
<path d="M0 0 C0.97453125 0.00451172 1.9490625 0.00902344 2.953125 0.01367188 C5.34381434 0.02539094 7.7343744 0.04179781 10.125 0.0625 C10.125 0.3925 10.125 0.7225 10.125 1.0625 C8.99964844 1.08828125 7.87429688 1.1140625 6.71484375 1.140625 C-2.62210022 1.45342387 -10.91683713 2.50273177 -19.8359375 5.3203125 C-22.76377911 6.03533809 -24.11518115 6.13651817 -26.875 5.0625 C-25.33663292 4.40884601 -23.79411234 3.76496397 -22.25 3.125 C-21.39148438 2.76535156 -20.53296875 2.40570313 -19.6484375 2.03515625 C-13.16593311 -0.23828543 -6.78375669 -0.05974853 0 0 Z " fill="#475F88" transform="translate(706.875,98.9375)"/>
<path d="M0 0 C1.0828125 -0.00515625 2.165625 -0.0103125 3.28125 -0.015625 C6.63574256 0.26120206 9.36306413 1.05947615 12.5 2.25 C12.5 2.91 12.5 3.57 12.5 4.25 C11.5925 4.085 10.685 3.92 9.75 3.75 C1.09708352 2.54139426 -7.07912348 3.00443293 -15.5 5.25 C-11.51185866 0.37560503 -5.9550178 -0.02835723 0 0 Z " fill="#2A394E" transform="translate(702.5,117.75)"/>
<path d="M0 0 C0.93779297 -0.01998047 1.87558594 -0.03996094 2.84179688 -0.06054688 C8.77388302 -0.05636641 12.12471404 0.57785694 16.6875 4.4375 C13.67718256 5.37173645 12.82099732 5.48199911 9.6875 4.4375 C9.6875 3.7775 9.6875 3.1175 9.6875 2.4375 C6.87493719 2.41065688 4.06262759 2.39073812 1.25 2.375 C0.44755859 2.36662109 -0.35488281 2.35824219 -1.18164062 2.34960938 C-3.22545221 2.3409857 -5.26933902 2.3852185 -7.3125 2.4375 C-7.6425 2.7675 -7.9725 3.0975 -8.3125 3.4375 C-9.97867115 3.47813832 -11.64638095 3.480221 -13.3125 3.4375 C-9.69505085 -0.97407686 -5.31930245 -0.03972324 0 0 Z " fill="#27426B" transform="translate(853.3125,98.5625)"/>
<path d="M0 0 C0.93423645 3.01031744 1.04449911 3.86650268 0 7 C-0.66 7 -1.32 7 -2 7 C-1.85786703 8.89611434 -1.71113093 10.79188394 -1.5625 12.6875 C-1.44068359 14.27111328 -1.44068359 14.27111328 -1.31640625 15.88671875 C-1.03548319 18.65086297 -0.59843148 21.28945741 0 24 C-4.16765591 18.56392707 -4.59983701 14.81170846 -4 8 C-3.15668139 5.11305654 -2.17024829 2.17024829 0 0 Z " fill="#435A80" transform="translate(676,138)"/>
<path d="M0 0 C-1.03631329 2.82630897 -1.60080006 3.81090529 -4.375 5.125 C-5.674375 5.558125 -5.674375 5.558125 -7 6 C-8.34136367 6.65035814 -9.67532254 7.3162955 -11 8 C-12.33333333 8.66666667 -13.66666667 9.33333333 -15 10 C-12.88225857 5.76451714 -11.37031527 4.61011615 -7 3 C-6.67 2.01 -6.34 1.02 -6 0 C-3.50907189 -1.24546405 -2.58919267 -0.7767578 0 0 Z " fill="#AAB5C8" transform="translate(399,105)"/>
<path d="M0 0 C0.83144531 0.00451172 1.66289063 0.00902344 2.51953125 0.01367188 C4.55471897 0.02536836 6.58986923 0.04330065 8.625 0.0625 C8.625 0.3925 8.625 0.7225 8.625 1.0625 C7.5628125 1.11148438 6.500625 1.16046875 5.40625 1.2109375 C-1.75005164 1.57493202 -8.49483691 1.92727697 -15.375 4.0625 C-17.20823485 4.60449987 -19.04157207 5.14615359 -20.875 5.6875 C-22.37556026 6.14399574 -23.87576525 6.60166965 -25.375 7.0625 C-25.705 6.4025 -26.035 5.7425 -26.375 5.0625 C-24.66922658 4.40993544 -22.96023911 3.76576959 -21.25 3.125 C-20.29867187 2.76535156 -19.34734375 2.40570313 -18.3671875 2.03515625 C-12.21989022 0.03688337 -6.39353052 -0.06628062 0 0 Z " fill="#2C374D" transform="translate(703.375,97.9375)"/>
<path d="M0 0 C0.33 0 0.66 0 1 0 C1.07347656 1.66289062 1.07347656 1.66289062 1.1484375 3.359375 C1.22349215 4.82294065 1.29903881 6.28648112 1.375 7.75 C1.42140625 8.84441406 1.42140625 8.84441406 1.46875 9.9609375 C1.67839104 13.80435661 2.07432035 16.66215528 4 20 C3.625 22.25 3.625 22.25 3 24 C3 23.34 3 22.68 3 22 C1.35 23.32 -0.3 24.64 -2 26 C-1.34 17.42 -0.68 8.84 0 0 Z " fill="#5D5B5C" transform="translate(346,312)"/>
<path d="M0 0 C-0.13277344 0.825 -0.26554688 1.65 -0.40234375 2.5 C-1.80393982 11.66664289 -2.54325202 20.7448436 -3 30 C-3.33 30 -3.66 30 -4 30 C-4 20.43 -4 10.86 -4 1 C-2 0 -2 0 0 0 Z " fill="#535252" transform="translate(741,282)"/>
<path d="M0 0 C1.46953125 0.00966797 1.46953125 0.00966797 2.96875 0.01953125 C3.98453125 0.03628906 5.0003125 0.05304688 6.046875 0.0703125 C7.078125 0.07933594 8.109375 0.08835937 9.171875 0.09765625 C11.71377787 0.12119239 14.2552078 0.15407227 16.796875 0.1953125 C16.796875 0.5253125 16.796875 0.8553125 16.796875 1.1953125 C16.21309082 1.19418457 15.62930664 1.19305664 15.02783203 1.19189453 C-0.70343784 0.94910845 -0.70343784 0.94910845 -14.203125 8.1953125 C-14.203125 7.2053125 -14.203125 6.2153125 -14.203125 5.1953125 C-11.953125 3.6328125 -11.953125 3.6328125 -9.203125 2.1953125 C-8.5937207 1.83969238 -7.98431641 1.48407227 -7.35644531 1.11767578 C-4.75330215 0.00263328 -2.8260504 -0.03286105 0 0 Z " fill="#28354C" transform="translate(847.203125,97.8046875)"/>
<path d="M0 0 C2 1 2 1 2.61889648 2.81933594 C3.22371138 6.28007049 3.10270093 9.74942684 3.0625 13.25 C3.05798828 13.99507812 3.05347656 14.74015625 3.04882812 15.5078125 C3.03709246 17.3385764 3.0191585 19.16929873 3 21 C2.67 21 2.34 21 2 21 C1.67 18.36 1.34 15.72 1 13 C0.67 13 0.34 13 0 13 C0 8.71 0 4.42 0 0 Z " fill="#42628D" transform="translate(740,115)"/>
<path d="M0 0 C0.5534764 2.07553648 1 3.84365964 1 6 C0.02246356 7.02196992 -0.9805881 8.01979625 -2 9 C-2.99 10.485 -2.99 10.485 -4 12 C-4.99 12.33 -5.98 12.66 -7 13 C-4.29384966 3.40546697 -4.29384966 3.40546697 0 0 Z " fill="#444243" transform="translate(791,279)"/>
<path d="M0 0 C0.33 0.66 0.66 1.32 1 2 C-4.75 7 -4.75 7 -7 7 C-7 6.34 -7 5.68 -7 5 C-7.66 4.67 -8.32 4.34 -9 4 C-8.3125 2.0625 -8.3125 2.0625 -7 0 C-4.12060581 -0.93580311 -2.74490212 -1.37245106 0 0 Z " fill="#3D3B3C" transform="translate(493,249)"/>
<path d="M0 0 C0 3 0 3 -1 5 C-0.01 4.67 0.98 4.34 2 4 C0.73532205 7.79403384 -0.61697513 8.06684293 -4 10 C-5.75149165 11.58245275 -5.75149165 11.58245275 -7 13 C-7.66 12.67 -8.32 12.34 -9 12 C-6.03 8.04 -3.06 4.08 0 0 Z " fill="#363E4A" transform="translate(653,120)"/>
<path d="M0 0 C1.08667969 0.01804688 2.17335938 0.03609375 3.29296875 0.0546875 C4.54013672 0.08949219 4.54013672 0.08949219 5.8125 0.125 C6.97191038 3.60323115 6.52070884 5.58395578 5.8125 9.125 C5.4825 9.125 5.1525 9.125 4.8125 9.125 C4.8125 6.815 4.8125 4.505 4.8125 2.125 C0.1925 2.125 -4.4275 2.125 -9.1875 2.125 C-5.66070901 -0.22619399 -4.15870515 -0.08943452 0 0 Z " fill="#40567D" transform="translate(713.1875,140.875)"/>
<path d="M0 0 C0.99 0.33 1.98 0.66 3 1 C3.99 0.67 4.98 0.34 6 0 C8.1875 0.9375 8.1875 0.9375 10 2 C5.11922548 4.44038726 2.47332932 5.46845421 -3 4 C-2.67 3.01 -2.34 2.02 -2 1 C-1.34 0.67 -0.68 0.34 0 0 Z " fill="#383637" transform="translate(771,241)"/>
<path d="M0 0 C1.32 0.66 2.64 1.32 4 2 C3.67 3.65 3.34 5.3 3 7 C-0.81756824 8.37432457 -4.07255329 7.67975039 -8 7 C-8 6.67 -8 6.34 -8 6 C-6.35 6 -4.7 6 -3 6 C-2.690625 5.38125 -2.38125 4.7625 -2.0625 4.125 C-1.375 2.75 -0.6875 1.375 0 0 Z " fill="#3E3C3D" transform="translate(563,232)"/>
<path d="M0 0 C0.66 0 1.32 0 2 0 C5 5.75 5 5.75 5 8 C6.32 8.66 7.64 9.32 9 10 C9 10.99 9 11.98 9 13 C8.01 12.34 7.02 11.68 6 11 C5.01 11.33 4.02 11.66 3 12 C3 9.69 3 7.38 3 5 C1.68 4.34 0.36 3.68 -1 3 C-0.67 2.01 -0.34 1.02 0 0 Z " fill="#343B47" transform="translate(593,108)"/>
<path d="M0 0 C2.31 0 4.62 0 7 0 C7 0.99 7 1.98 7 3 C2.65714286 7 2.65714286 7 0 7 C-0.93423645 3.98968256 -1.04449911 3.13349732 0 0 Z " fill="#3F3D3E" transform="translate(758,249)"/>
<path d="M0 0 C0.33 0.99 0.66 1.98 1 3 C2.65 3.33 4.3 3.66 6 4 C6 4.66 6 5.32 6 6 C4.56163249 5.88541307 3.12429034 5.75790884 1.6875 5.625 C0.88699219 5.55539062 0.08648437 5.48578125 -0.73828125 5.4140625 C-3 5 -3 5 -6 3 C-4.02 2.01 -2.04 1.02 0 0 Z " fill="#474546" transform="translate(294,266)"/>
<path d="M0 0 C0.33 0 0.66 0 1 0 C1.60377358 7.24528302 1.60377358 7.24528302 -1 10.5 C-4.98632957 12.49316478 -7.58083952 12.2996041 -12 12 C-12 11.67 -12 11.34 -12 11 C-9.36 10.67 -6.72 10.34 -4 10 C-4 9.01 -4 8.02 -4 7 C-3.01 7 -2.02 7 -1 7 C-0.67 4.69 -0.34 2.38 0 0 Z " fill="#27323E" transform="translate(716,144)"/>
<path d="M0 0 C0.66 0 1.32 0 2 0 C2 0.66 2 1.32 2 2 C2.99 2.33 3.98 2.66 5 3 C5 4.32 5 5.64 5 7 C1.27566618 5.7874262 -2.37802806 4.49140021 -6 3 C-6 2.67 -6 2.34 -6 2 C-4.02 2 -2.04 2 0 2 C0 1.34 0 0.68 0 0 Z " fill="#4C4B4C" transform="translate(318,274)"/>
<path d="M0 0 C0.66 1.32 1.32 2.64 2 4 C1.34 4 0.68 4 0 4 C0.33 4.99 0.66 5.98 1 7 C-0.25 10.125 -0.25 10.125 -2 13 C-2.99 13.33 -3.98 13.66 -5 14 C-3.45730076 9.27934033 -1.92205381 4.58335908 0 0 Z " fill="#4A494A" transform="translate(338,214)"/>
<path d="M0 0 C4.95 0 9.9 0 15 0 C15 0.33 15 0.66 15 1 C13.91332031 1.18175781 13.91332031 1.18175781 12.8046875 1.3671875 C7.71502427 2.24939579 2.85116654 3.16442347 -2 5 C-1.34 3.35 -0.68 1.7 0 0 Z " fill="#476697" transform="translate(700,140)"/>
<path d="M0 0 C1.5 1.25 1.5 1.25 3 3 C3 4.32 3 5.64 3 7 C-2.94 7 -8.88 7 -15 7 C-15 6.67 -15 6.34 -15 6 C-10.05 6 -5.1 6 0 6 C0 4.02 0 2.04 0 0 Z " fill="#273448" transform="translate(715,122)"/>
<path d="M0 0 C0.66 0 1.32 0 2 0 C2.33 0.99 2.66 1.98 3 3 C3.825 3.433125 4.65 3.86625 5.5 4.3125 C8 6 8 6 8.8125 9.1875 C8.874375 10.115625 8.93625 11.04375 9 12 C8.34 12 7.68 12 7 12 C4.70351351 9.4385343 4 8.52032428 4 5 C3.01 4.67 2.02 4.34 1 4 C0.3125 1.9375 0.3125 1.9375 0 0 Z " fill="#323E4C" transform="translate(647,140)"/>
<path d="M0 0 C3.50166718 0.64845688 6.09856846 1.93845653 9 4 C10.3125 6.1875 10.3125 6.1875 11 8 C6.89160936 6.54997977 3.49655387 4.6020866 0 2 C0 1.34 0 0.68 0 0 Z " fill="#455F88" transform="translate(725,102)"/>
<path d="M0 0 C0.66 0.33 1.32 0.66 2 1 C3.66194453 1.35613097 5.328451 1.69208308 7 2 C6.67 3.65 6.34 5.3 6 7 C3.03 6.01 0.06 5.02 -3 4 C-2.01 2.68 -1.02 1.36 0 0 Z " fill="#3A3C44" transform="translate(433,97)"/>
<path d="M0 0 C0.66 1.32 1.32 2.64 2 4 C0.71937515 5.7074998 -0.61767557 7.37373596 -2 9 C-2.66 9 -3.32 9 -4 9 C-5.38232443 7.37373596 -6.71937515 5.7074998 -8 4 C-7.34 3.67 -6.68 3.34 -6 3 C-3.375 3.9375 -3.375 3.9375 -1 5 C-0.67 3.35 -0.34 1.7 0 0 Z " fill="#2F3945" transform="translate(632,108)"/>
<path d="M0 0 C2 3 2 3 1.625 5.6875 C1.41875 6.450625 1.2125 7.21375 1 8 C-2.75 9.125 -2.75 9.125 -5 8 C-3.62845496 5.04590299 -2.01136276 2.55991624 0 0 Z " fill="#383D49" transform="translate(665,104)"/>
<path d="M0 0 C-2.64 1.65 -5.28 3.3 -8 5 C-8.33 4.34 -8.66 3.68 -9 3 C-11.02463255 2.34786708 -11.02463255 2.34786708 -13 2 C-11.5882217 1.46605821 -10.17029756 0.94834896 -8.75 0.4375 C-7.96109375 0.14746094 -7.1721875 -0.14257812 -6.359375 -0.44140625 C-4 -1 -4 -1 0 0 Z " fill="#464445" transform="translate(318,369)"/>
<path d="M0 0 C2.43757413 -0.02698422 4.87484915 -0.04683099 7.3125 -0.0625 C8.00279297 -0.07087891 8.69308594 -0.07925781 9.40429688 -0.08789062 C12.5483025 -0.10307906 14.99420019 -0.00193327 18 1 C18 1.66 18 2.32 18 3 C12.06 2.34 6.12 1.68 0 1 C0 0.67 0 0.34 0 0 Z " fill="#646263" transform="translate(288,197)"/>
<path d="M0 0 C5.52677733 -0.19392201 9.75614911 0.2520497 15 2 C15 2.99 15 3.98 15 5 C12.86608974 4.54273352 11.10639437 4.05870034 9.1875 3 C6.19737502 1.63308572 3.24675551 1.37462564 0 1 C0 0.67 0 0.34 0 0 Z " fill="#2C3445" transform="translate(717,99)"/>
<path d="M0 0 C1.32 0.33 2.64 0.66 4 1 C2.6875 3 2.6875 3 1 5 C0.01 5 -0.98 5 -2 5 C-1.67 5.99 -1.34 6.98 -1 8 C-2.98 8.99 -2.98 8.99 -5 10 C-3.84414715 6.08788267 -2.64465038 3.1254959 0 0 Z " fill="#525151" transform="translate(520,282)"/>
<path d="M0 0 C3.68754757 0.49831724 5.60490662 1.10067643 8 4 C7.67 4.99 7.34 5.98 7 7 C5.68 6.34 4.36 5.68 3 5 C3 4.34 3 3.68 3 3 C2.01 2.67 1.02 2.34 0 2 C0 1.34 0 0.68 0 0 Z " fill="#3C3C3C" transform="translate(285,312)"/>
<path d="M0 0 C0.33 0 0.66 0 1 0 C1.66 4.29 2.32 8.58 3 13 C2.01 13 1.02 13 0 13 C0 11.35 0 9.7 0 8 C-0.66 7.67 -1.32 7.34 -2 7 C-2.125 4.625 -2.125 4.625 -2 2 C-1.34 1.34 -0.68 0.68 0 0 Z " fill="#565455" transform="translate(372,331)"/>
<path d="M0 0 C0.99 0.33 1.98 0.66 3 1 C0.57383966 5.73101266 0.57383966 5.73101266 -2 6.9375 C-4 7 -4 7 -7 5 C-5.90554162 4.13342884 -4.79902219 3.28207276 -3.6875 2.4375 C-3.07261719 1.96183594 -2.45773437 1.48617188 -1.82421875 0.99609375 C-1.22222656 0.66738281 -0.62023437 0.33867187 0 0 Z " fill="#D8D6D7" transform="translate(847,328)"/>
<path d="M0 0 C0.66 0.33 1.32 0.66 2 1 C1.43457996 2.32031595 0.84693528 3.6311301 0.25 4.9375 C-0.23726562 6.03384766 -0.23726562 6.03384766 -0.734375 7.15234375 C-2 9 -2 9 -4.140625 9.75390625 C-5.06101562 9.87572266 -5.06101562 9.87572266 -6 10 C-4.34832443 6.4213696 -2.21713508 3.25179812 0 0 Z " fill="#677D9D" transform="translate(640,102)"/>
<path d="M0 0 C2.50037734 2.17424117 3.43628586 3.73045798 4 7 C3.34 7 2.68 7 2 7 C1.67 7.66 1.34 8.32 1 9 C-1.09230769 4.56923077 -1.09230769 4.56923077 -0.625 1.6875 C-0.41875 1.130625 -0.2125 0.57375 0 0 Z " fill="#393738" transform="translate(373,343)"/>
<path d="M0 0 C2.16874252 0.50603992 3.99967627 0.99983813 6 2 C6 2.66 6 3.32 6 4 C7.32 4.66 8.64 5.32 10 6 C9.67 6.99 9.34 7.98 9 9 C7.49704815 7.69088122 5.99770689 6.37761608 4.5 5.0625 C3.6646875 4.33160156 2.829375 3.60070312 1.96875 2.84765625 C1.3190625 2.23792969 0.669375 1.62820313 0 1 C0 0.67 0 0.34 0 0 Z " fill="#525152" transform="translate(328,284)"/>
<path d="M0 0 C0.33 0.66 0.66 1.32 1 2 C0.01 2 -0.98 2 -2 2 C-1.34 2.33 -0.68 2.66 0 3 C-0.66 4.32 -1.32 5.64 -2 7 C-2.66 7 -3.32 7 -4 7 C-4.33 6.34 -4.66 5.68 -5 5 C-5.99 5 -6.98 5 -8 5 C-5.31158141 2.74754119 -3.35358125 1.11786042 0 0 Z " fill="#565455" transform="translate(800,272)"/>
<path d="M0 0 C1.65 1.32 3.3 2.64 5 4 C4 6 4 6 3 7 C1.33382885 7.04063832 -0.33388095 7.042721 -2 7 C-1.67 6.01 -1.34 5.02 -1 4 C-0.34 4 0.32 4 1 4 C0.67 2.68 0.34 1.36 0 0 Z " fill="#434243" transform="translate(558,280)"/>
<path d="M0 0 C1.80411967 2.75924185 2.0127245 3.88972103 1.625 7.25 C1.41875 8.1575 1.2125 9.065 1 10 C0.01 9.67 -0.98 9.34 -2 9 C-2.6875 6.1875 -2.6875 6.1875 -3 3 C-1.5625 1.125 -1.5625 1.125 0 0 Z " fill="#424041" transform="translate(467,278)"/>
<path d="M0 0 C2.9375 0.75 2.9375 0.75 6 2 C6.875 4.125 6.875 4.125 7 6 C4.69 5.34 2.38 4.68 0 4 C0 2.68 0 1.36 0 0 Z " fill="#3E3C3F" transform="translate(344,96)"/>
<path d="M0 0 C2.97 0.99 5.94 1.98 9 3 C7.3125 4.625 7.3125 4.625 5 6 C2.25 5.1875 2.25 5.1875 0 4 C0 2.68 0 1.36 0 0 Z " fill="#3B393A" transform="translate(227,295)"/>
<path d="M0 0 C2.89932357 2.39509338 3.50168276 4.31245243 4 8 C2.68 7.67 1.36 7.34 0 7 C0 4.69 0 2.38 0 0 Z " fill="#494748" transform="translate(563,286)"/>
<path d="M0 0 C0.33 0.99 0.66 1.98 1 3 C1.66 3 2.32 3 3 3 C4.38232443 4.62626404 5.71937515 6.2925002 7 8 C6.67 8.66 6.34 9.32 6 10 C0.57361963 6.07055215 0.57361963 6.07055215 -1 4 C-0.6875 1.8125 -0.6875 1.8125 0 0 Z " fill="#607795" transform="translate(659,157)"/>
<path d="M0 0 C0.75 1.75 0.75 1.75 1 4 C-0.9375 6.25 -0.9375 6.25 -3 8 C-4.32 7.34 -5.64 6.68 -7 6 C-6.030625 5.38125 -5.06125 4.7625 -4.0625 4.125 C-0.97164638 2.34321154 -0.97164638 2.34321154 0 0 Z " fill="#405E84" transform="translate(717,150)"/>
<path d="M0 0 C1.52299523 2.93720508 2.80100302 5.9168649 4 9 C2.125 8.6875 2.125 8.6875 0 8 C-0.66 7.01 -1.32 6.02 -2 5 C-1 2 -1 2 0 0 Z " fill="#383C41" transform="translate(379,146)"/>
<path d="M0 0 C-1.65 0.33 -3.3 0.66 -5 1 C-5 2.32 -5 3.64 -5 5 C-6.65 4.67 -8.3 4.34 -10 4 C-4.7704918 -1.59016393 -4.7704918 -1.59016393 0 0 Z " fill="#404144" transform="translate(328,121)"/>
<path d="M0 0 C1.2065625 0.0309375 1.2065625 0.0309375 2.4375 0.0625 C1.4475 0.7225 0.4575 1.3825 -0.5625 2.0625 C-1.5525 2.866875 -1.5525 2.866875 -2.5625 3.6875 C-4.5625 5.0625 -4.5625 5.0625 -7.5625 5.0625 C-7.8925 3.7425 -8.2225 2.4225 -8.5625 1.0625 C-7.3559375 1.0934375 -7.3559375 1.0934375 -6.125 1.125 C-3.0866539 1.050894 -3.0383461 0.074106 0 0 Z " fill="#445C81" transform="translate(690.5625,118.9375)"/>
<path d="M0 0 C7.38461538 -0.49230769 7.38461538 -0.49230769 10.5 2 C10.995 2.66 11.49 3.32 12 4 C9.69 3.67 7.38 3.34 5 3 C5 2.34 5 1.68 5 1 C3.35 1 1.7 1 0 1 C0 0.67 0 0.34 0 0 Z " fill="#224777" transform="translate(858,100)"/>
<path d="M0 0 C0 0.66 0 1.32 0 2 C-0.99 2 -1.98 2 -3 2 C-3 2.66 -3 3.32 -3 4 C-5.64 4 -8.28 4 -11 4 C-11 3.67 -11 3.34 -11 3 C-9.35 3 -7.7 3 -6 3 C-6 2.34 -6 1.68 -6 1 C-4 0 -4 0 0 0 Z " fill="#3E3C3D" transform="translate(283,376)"/>
<path d="M0 0 C0.66 1.32 1.32 2.64 2 4 C1.01 3.67 0.02 3.34 -1 3 C-1.66 4.32 -2.32 5.64 -3 7 C-4.32 6.67 -5.64 6.34 -7 6 C-4.69 4.02 -2.38 2.04 0 0 Z " fill="#555455" transform="translate(595,355)"/>
<path d="M0 0 C1.875 0.25 1.875 0.25 4 1 C5.25 3.0625 5.25 3.0625 6 5 C5.01 5.33 4.02 5.66 3 6 C3 5.34 3 4.68 3 4 C1.68 3.34 0.36 2.68 -1 2 C-0.67 1.34 -0.34 0.68 0 0 Z " fill="#EDEBEC" transform="translate(848,330)"/>
<path d="M0 0 C1.67542976 0.28604898 3.34385343 0.61781233 5 1 C3.02 1.99 3.02 1.99 1 3 C1 3.66 1 4.32 1 5 C0.01 5.33 -0.98 5.66 -2 6 C-1.125 1.125 -1.125 1.125 0 0 Z " fill="#3F3F3F" transform="translate(691,243)"/>
<path d="M0 0 C4.08378283 0.74250597 8.01939223 1.82923301 12 3 C12 3.33 12 3.66 12 4 C8.96663814 4.22893297 6.02534949 4.36475845 3 4 C0.9375 2 0.9375 2 0 0 Z " fill="#2B3B4F" transform="translate(698,153)"/>
<path d="M0 0 C0.33 0.66 0.66 1.32 1 2 C2.98 2 4.96 2 7 2 C7 2.33 7 2.66 7 3 C5.04310341 3.22142255 3.08438048 3.4267568 1.125 3.625 C-0.51082031 3.79902344 -0.51082031 3.79902344 -2.1796875 3.9765625 C-3.57574219 3.98816406 -3.57574219 3.98816406 -5 4 C-5.66 3.34 -6.32 2.68 -7 2 C-2.25 0.875 -2.25 0.875 0 2 C0 1.34 0 0.68 0 0 Z " fill="#A9B3C2" transform="translate(415,114)"/>
<path d="M0 0 C2.64 0.66 5.28 1.32 8 2 C8 2.99 8 3.98 8 5 C6.02 5 4.04 5 2 5 C1.34 3.35 0.68 1.7 0 0 Z " fill="#4E4C4D" transform="translate(510,370)"/>
<path d="M0 0 C0.66 0 1.32 0 2 0 C1.45276317 3.37462715 0.9451 5.08235 -1 8 C-1.66 6.02 -2.32 4.04 -3 2 C-2.01 2 -1.02 2 0 2 C0 1.34 0 0.68 0 0 Z " fill="#3F3D3E" transform="translate(204,336)"/>
<path d="M0 0 C1.5 1.125 1.5 1.125 3 3 C3.1875 6.1875 3.1875 6.1875 3 9 C2.67 8.34 2.34 7.68 2 7 C1.34 7 0.68 7 0 7 C-0.93423645 3.98968256 -1.04449911 3.13349732 0 0 Z " fill="#30363F" transform="translate(666,161)"/>
<path d="M0 0 C0.66 0.33 1.32 0.66 2 1 C2 1.99 2 2.98 2 4 C1.34 4 0.68 4 0 4 C-0.33 4.66 -0.66 5.32 -1 6 C-1.33 5.34 -1.66 4.68 -2 4 C-2.99 4 -3.98 4 -5 4 C-3 1 -3 1 0 0 Z " fill="#ACB7C6" transform="translate(448,159)"/>
<path d="M0 0 C2.02350324 3.03525486 2.32124018 4.19426202 2.625 7.6875 C2.69976562 8.49574219 2.77453125 9.30398437 2.8515625 10.13671875 C2.90054687 10.75160156 2.94953125 11.36648437 3 12 C2.34 10.68 1.68 9.36 1 8 C0.34 8 -0.32 8 -1 8 C-0.67 5.36 -0.34 2.72 0 0 Z " fill="#9DA7B9" transform="translate(453,120)"/>
<path d="M0 0 C0.33 0.99 0.66 1.98 1 3 C1.99 2.34 2.98 1.68 4 1 C6.1875 1.375 6.1875 1.375 8 2 C7.01 2.33 6.02 2.66 5 3 C4.01 4.485 4.01 4.485 3 6 C2.01 6 1.02 6 0 6 C0 4.02 0 2.04 0 0 Z " fill="#283548" transform="translate(784,100)"/>
<path d="M0 0 C4.7517398 0.43197635 6.92000054 1.32769295 10 5 C5.59885603 4.49701212 3.28804981 2.91227269 0 0 Z " fill="#27354A" transform="translate(864,99)"/>
<path d="M0 0 C2.475 0.99 2.475 0.99 5 2 C4.67 2.99 4.34 3.98 4 5 C2.68 4.67 1.36 4.34 0 4 C0 2.66666667 0 1.33333333 0 0 Z " fill="#E1E0E1" transform="translate(827,272)"/>
<path d="M0 0 C0.66 0.33 1.32 0.66 2 1 C1.67 2.65 1.34 4.3 1 6 C-0.32 6.33 -1.64 6.66 -3 7 C-1.125 1.125 -1.125 1.125 0 0 Z " fill="#3D3D3D" transform="translate(333,228)"/>
<path d="M0 0 C5.75 1.75 5.75 1.75 8 4 C5.36 4 2.72 4 0 4 C0 2.68 0 1.36 0 0 Z " fill="#464445" transform="translate(818,271)"/>
<path d="M0 0 C4.455 1.98 4.455 1.98 9 4 C9 4.33 9 4.66 9 5 C6.36 4.67 3.72 4.34 1 4 C0.67 2.68 0.34 1.36 0 0 Z " fill="#2B3849" transform="translate(679,167)"/>
<path d="M0 0 C1.32 0.33 2.64 0.66 4 1 C4 1.66 4 2.32 4 3 C1.03 3.66 -1.94 4.32 -5 5 C-4.01 4.01 -3.02 3.02 -2 2 C-1.34 2 -0.68 2 0 2 C0 1.34 0 0.68 0 0 Z " fill="#42474C" transform="translate(448,163)"/>
<path d="M0 0 C1.32 0 2.64 0 4 0 C4 0.66 4 1.32 4 2 C5.32 1.67 6.64 1.34 8 1 C8 1.99 8 2.98 8 4 C7.34 4 6.68 4 6 4 C5.67 4.99 5.34 5.98 5 7 C4.54625 6.21625 4.0925 5.4325 3.625 4.625 C2.11571258 1.96301969 2.11571258 1.96301969 0 0 Z " fill="#C3C6CC" transform="translate(334,121)"/>
<path d="M0 0 C0.33 0.66 0.66 1.32 1 2 C0.67 2.66 0.34 3.32 0 4 C0.66 4 1.32 4 2 4 C1.67 4.66 1.34 5.32 1 6 C-0.32 5.67 -1.64 5.34 -3 5 C-3 4.01 -3 3.02 -3 2 C-2.01 1.34 -1.02 0.68 0 0 Z " fill="#3F3D3E" transform="translate(196,352)"/>
<path d="M0 0 C2.375 0.3125 2.375 0.3125 5 1 C5.66 1.99 6.32 2.98 7 4 C4.36 3.67 1.72 3.34 -1 3 C-0.67 2.01 -0.34 1.02 0 0 Z " fill="#4A4849" transform="translate(827,236)"/>
<path d="M0 0 C0.66 0.33 1.32 0.66 2 1 C-0.75 3.0625 -0.75 3.0625 -4 5 C-6.203125 4.62109375 -6.203125 4.62109375 -8 4 C-6.71349294 3.30289269 -5.42059335 2.61757124 -4.125 1.9375 C-3.40570313 1.55464844 -2.68640625 1.17179688 -1.9453125 0.77734375 C-1.30335938 0.52082031 -0.66140625 0.26429688 0 0 Z " fill="#D0CECF" transform="translate(238,202)"/>
<path d="M0 0 C0.33 0 0.66 0 1 0 C1.33 2.64 1.66 5.28 2 8 C1.01 8 0.02 8 -1 8 C-1.04241723 5.66705225 -1.04092937 3.33297433 -1 1 C-0.67 0.67 -0.34 0.34 0 0 Z " fill="#46618D" transform="translate(696,146)"/>
<path d="M0 0 C0.33 0.66 0.66 1.32 1 2 C-0.25 4.5625 -0.25 4.5625 -2 7 C-2.99 7.33 -3.98 7.66 -5 8 C-3.62845496 5.04590299 -2.01136276 2.55991624 0 0 Z " fill="#3C485C" transform="translate(659,112)"/>
</svg>
